<?xml version="1.0" encoding="UTF-8"?>
<svg id="Calque_1" data-name="Calque 1" xmlns="http://www.w3.org/2000/svg" viewBox="0 0 828.23 733.64">
  <defs>
    <style>
      .cls-1 {
        fill: aqua;
      }

      .cls-2 {
        fill: #f5ffff;
      }

      .cls-3 {
        fill: #c7cdd5;
      }

      .cls-4 {
        fill: #00ebe9;
      }

      .cls-5 {
        fill: #45c1f5;
      }

      .cls-6 {
        fill: #4fe1df;
      }

      .cls-7 {
        fill: #8381a1;
      }

      .cls-8 {
        fill: #dbffff;
      }
    </style>
  </defs>
  <g>
    <g>
      <path class="cls-6" d="M650.83,686.37c-3.94,7.91-11.86,12.83-20.7,12.83h-201.78c-8.83,0-16.76-4.92-20.69-12.83-3.92-7.91-3.04-17.18,2.31-24.2l52.03-68.19c.1-.12.19-.24.29-.36l.21-.27,4.01-5.26,15.12-19.83c1.94-2.55,3.01-5.67,3.01-8.87v-11.16c3.08.57,6.08,1.26,9.05,1.96,13.72,3.27,26.59,6.88,40.41.35,5.39-2.55,11.51-3.23,17.41-2.26,4.52.73,8.96,1.32,13.33,1.79,3.04.32,6.05.58,9.03.77v9.56c0,2.55.84,5.03,2.39,7.05l9.71,12.73,6.87,9.01,55.68,72.97c5.36,7.01,6.24,16.29,2.33,24.2Z"/>
      <path class="cls-4" d="M650.83,686.37c-3.94,7.91-11.86,12.83-20.7,12.83h-201.78c-8.83,0-16.76-4.92-20.69-12.83-3.92-7.91-3.04-17.18,2.31-24.2l52.03-68.19c.1-.12.19-.24.29-.36l.21-.27c2.59-3.11,6.05-5.42,9.97-6.43,2.62-.68,5.44-1.61,8.46-2.83,1.98-.81,4.06-1.74,6.22-2.81,3.78-1.87,8.06-2.48,12.22-1.74,2.78.49,5.48,1.14,8.14,1.79,1.61.39,3.21.77,4.8,1.11,6.69,1.41,13.23,2,20.11-1.26,3.53-1.67,7.54-2.11,11.39-1.48,11.15,1.8,21.47,2.36,31.65,1.66h.11c6.7-.44,13.19,2.5,17.26,7.85l55.68,72.97c5.36,7.01,6.24,16.29,2.33,24.2Z"/>
    </g>
    <path class="cls-8" d="M659.22,690.71c-4.21,8.45-12.68,13.71-22.13,13.71h-215.71c-9.44,0-17.92-5.26-22.11-13.71-4.2-8.45-3.25-18.37,2.47-25.87l55.92-73.28.23-.29,4.29-5.63,16.16-21.2c2.08-2.72,3.21-6.06,3.21-9.48v-133.81h-.98c-2.53,0-4.78-1.83-5.04-4.34-.29-2.88,1.98-5.33,4.82-5.33h7.17c2.05,0,3.71,1.67,3.71,3.72v146.68c0,1.06-.34,2.08-.99,2.93l-12.64,16.56-68.15,89.33c-3.52,4.63-4.09,10.5-1.5,15.72,2.6,5.22,7.63,8.34,13.44,8.34h215.71c5.83,0,10.85-3.12,13.44-8.34,2.59-5.22,2.03-11.09-1.52-15.72l-70.37-92.26-10.41-13.63c-.64-.85-.99-1.87-.99-2.93l.04-16.88.26-129.56c.01-2.18,1.8-3.96,3.99-3.96h6.61c2.84,0,5.11,2.46,4.82,5.33-.26,2.51-2.53,4.34-5.04,4.34h-.98v134.89c0,2.72.89,5.37,2.55,7.54l10.38,13.61,7.35,9.64,59.52,78.01c5.73,7.5,6.67,17.42,2.49,25.87Z"/>
    <g>
      <path class="cls-3" d="M573.93,620.41c0,4.1-3.32,7.41-7.41,7.41-2.25,0-4.27-1-5.62-2.57-1.14-1.29-1.8-2.99-1.8-4.83,0-4.09,3.32-7.4,7.42-7.4,3.26,0,6.02,2.1,7,5.02.27.75.41,1.55.41,2.38Z"/>
      <path class="cls-3" d="M520.45,660.37c0,2.3-1.86,4.16-4.17,4.16-1.04,0-1.99-.37-2.71-1-.9-.75-1.47-1.89-1.47-3.15,0-2.31,1.86-4.17,4.18-4.17,2.06,0,3.75,1.49,4.09,3.44.05.24.07.48.07.73Z"/>
      <path class="cls-3" d="M501.29,602.05c0,2.82-2.28,5.09-5.1,5.09-1.38,0-2.64-.54-3.55-1.44-.96-.92-1.55-2.21-1.55-3.65,0-2.82,2.28-5.09,5.1-5.09,2.41,0,4.42,1.66,4.95,3.89.1.39.15.79.15,1.2Z"/>
      <path class="cls-3" d="M612.27,673.17c0,2.56-2.07,4.63-4.64,4.63-1.22,0-2.31-.47-3.15-1.22-.92-.86-1.49-2.07-1.49-3.41,0-2.55,2.08-4.63,4.64-4.63,2.24,0,4.09,1.58,4.54,3.67.06.3.1.63.1.95Z"/>
      <path class="cls-3" d="M547.66,628.43c0,4.44-3.6,8.03-8.04,8.03-2.48,0-4.7-1.12-6.17-2.89-1.16-1.39-1.86-3.18-1.86-5.14,0-4.42,3.61-8.03,8.04-8.03,3.49,0,6.45,2.22,7.56,5.32.31.85.48,1.75.48,2.71Z"/>
      <path class="cls-3" d="M464.04,665.39c0,2.77-2.25,5-5.02,5-1.36,0-2.59-.53-3.5-1.41-.94-.91-1.53-2.19-1.53-3.59,0-2.78,2.25-5.02,5.02-5.02,2.37,0,4.37,1.64,4.88,3.86.1.37.15.76.15,1.16Z"/>
      <path class="cls-3" d="M525.4,536.63c0,3.15-2.57,5.72-5.73,5.72-1.61,0-3.08-.68-4.12-1.76-.99-1.02-1.6-2.42-1.6-3.95,0-3.14,2.57-5.7,5.71-5.7,2.64,0,4.87,1.79,5.52,4.21.13.47.21.98.21,1.5Z"/>
      <path class="cls-3" d="M559.4,453.16c0,3.24-2.63,5.86-5.87,5.86-1.67,0-3.18-.7-4.25-1.82-1-1.05-1.62-2.47-1.62-4.04,0-3.24,2.63-5.86,5.87-5.86,2.69,0,4.95,1.8,5.64,4.27.16.51.23,1.04.23,1.6Z"/>
      <path class="cls-3" d="M549.83,493.59c0,.07,0,.16-.01.23-.11,1.24-1.17,2.24-2.46,2.24-.39,0-.75-.08-1.08-.25-.82-.39-1.4-1.23-1.4-2.21,0-1.37,1.11-2.48,2.48-2.48s2.47,1.11,2.47,2.48Z"/>
      <path class="cls-3" d="M528.81,432.8c0,5.62-4.58,10.18-10.21,10.18-3.29,0-6.24-1.56-8.1-3.99-1.31-1.72-2.09-3.86-2.09-6.19,0-5.62,4.56-10.19,10.19-10.19,4.31,0,8,2.68,9.5,6.45.45,1.16.7,2.42.7,3.73Z"/>
      <path class="cls-3" d="M559.4,370.31c0,2.63-2.14,4.77-4.78,4.77-1.28,0-2.43-.5-3.29-1.31-.93-.87-1.5-2.1-1.5-3.47,0-2.65,2.14-4.79,4.79-4.79,2.29,0,4.2,1.6,4.67,3.75.07.34.11.69.11,1.04Z"/>
      <path class="cls-3" d="M532.83,392.84c0,2.63-2.16,4.77-4.79,4.77-1.28,0-2.43-.5-3.29-1.31-.93-.87-1.5-2.1-1.5-3.47,0-2.65,2.14-4.79,4.79-4.79,2.29,0,4.21,1.61,4.69,3.76.07.34.11.68.11,1.03Z"/>
      <path class="cls-3" d="M527.57,341.15c0,3.75-3.05,6.79-6.8,6.79-2.03,0-3.87-.89-5.11-2.32h0c-1.07-1.2-1.7-2.77-1.7-4.47,0-3.75,3.05-6.79,6.8-6.79,3.05,0,5.63,2.01,6.5,4.77.19.64.3,1.32.3,2.02Z"/>
      <path class="cls-3" d="M572.39,333.9c0,5.7-4.64,10.33-10.36,10.33-3.35,0-6.34-1.6-8.23-4.07-1.33-1.73-2.12-3.9-2.12-6.26,0-5.7,4.64-10.33,10.35-10.33,4.37,0,8.11,2.7,9.64,6.51.47,1.18.73,2.47.73,3.82Z"/>
      <path class="cls-3" d="M520.15,476.92c0,2.21-1.8,4.01-4.02,4.01-.97,0-1.88-.35-2.57-.93-.88-.74-1.45-1.85-1.45-3.08,0-2.21,1.8-4.01,4.02-4.01,2,0,3.66,1.46,3.96,3.37.05.21.06.42.06.64Z"/>
      <path class="cls-3" d="M556.93,557.3c0,3.66-2.98,6.64-6.65,6.64-1.96,0-3.73-.85-4.95-2.21h0c-1.07-1.17-1.7-2.73-1.7-4.42,0-3.66,2.98-6.64,6.65-6.64,2.98,0,5.51,1.96,6.34,4.67t0,.01c.21.62.3,1.28.3,1.96Z"/>
      <path class="cls-3" d="M515.32,574.18c0,3.11-2.52,5.62-5.63,5.62-1.57,0-3-.65-4.03-1.7-.98-1-1.59-2.38-1.59-3.92,0-3.09,2.52-5.61,5.62-5.61,2.6,0,4.79,1.75,5.44,4.15.12.46.19.95.19,1.46Z"/>
    </g>
    <g>
      <path class="cls-2" d="M573.93,620.41c0,4.1-3.32,7.41-7.41,7.41-2.25,0-4.27-1-5.62-2.57-.27-.75-.41-1.55-.41-2.38,0-4.1,3.32-7.41,7.41-7.41,2.25,0,4.27,1,5.62,2.57.27.75.41,1.55.41,2.38Z"/>
      <path class="cls-2" d="M520.45,660.37c0,2.3-1.86,4.16-4.17,4.16-1.04,0-1.99-.37-2.71-1-.05-.23-.07-.47-.07-.71,0-2.3,1.86-4.17,4.18-4.17,1.03,0,1.97.37,2.7,1,.05.24.07.48.07.73Z"/>
      <path class="cls-2" d="M501.29,602.05c0,2.82-2.28,5.09-5.1,5.09-1.38,0-2.64-.54-3.55-1.44-.11-.39-.16-.79-.16-1.2,0-2.82,2.28-5.1,5.1-5.1,1.39,0,2.64.54,3.56,1.45.1.39.15.79.15,1.2Z"/>
      <path class="cls-2" d="M612.27,673.17c0,2.56-2.07,4.63-4.64,4.63-1.22,0-2.31-.47-3.15-1.22-.06-.31-.1-.63-.1-.95,0-2.56,2.08-4.63,4.64-4.63,1.22,0,2.32.47,3.15,1.22.06.3.1.63.1.95Z"/>
      <path class="cls-2" d="M547.66,628.43c0,4.44-3.6,8.03-8.04,8.03-2.48,0-4.7-1.12-6.17-2.89-.31-.83-.47-1.74-.47-2.68,0-4.44,3.61-8.03,8.04-8.03,2.47,0,4.69,1.11,6.16,2.86.31.85.48,1.75.48,2.71Z"/>
      <path class="cls-2" d="M464.04,665.39c0,2.77-2.25,5-5.02,5-1.36,0-2.59-.53-3.5-1.41-.08-.36-.13-.75-.13-1.15,0-2.77,2.25-5.02,5.02-5.02,1.37,0,2.59.54,3.49,1.41.1.37.15.76.15,1.16Z"/>
      <path class="cls-2" d="M525.4,536.63c0,3.15-2.57,5.72-5.73,5.72-1.61,0-3.08-.68-4.12-1.76-.13-.47-.21-.98-.21-1.5,0-3.15,2.57-5.72,5.71-5.72,1.62,0,3.09.68,4.13,1.76.13.47.21.98.21,1.5Z"/>
      <path class="cls-2" d="M559.4,453.16c0,3.24-2.63,5.86-5.87,5.86-1.67,0-3.18-.7-4.25-1.82-.16-.51-.23-1.04-.23-1.6,0-3.24,2.63-5.86,5.87-5.86,1.67,0,3.18.7,4.25,1.82.16.51.23,1.04.23,1.6Z"/>
      <path class="cls-2" d="M549.81,493.82c-.11,1.24-1.17,2.24-2.46,2.24-.39,0-.75-.08-1.08-.25.11-1.26,1.17-2.24,2.46-2.24.39,0,.75.08,1.08.25Z"/>
      <path class="cls-2" d="M528.81,432.8c0,5.62-4.58,10.18-10.21,10.18-3.29,0-6.24-1.56-8.1-3.99-.46-1.16-.71-2.42-.71-3.75,0-5.62,4.58-10.18,10.21-10.18,3.31,0,6.25,1.57,8.11,4,.45,1.16.7,2.42.7,3.73Z"/>
      <path class="cls-2" d="M559.4,370.31c0,2.63-2.14,4.77-4.78,4.77-1.28,0-2.43-.5-3.29-1.31-.07-.34-.11-.68-.11-1.03,0-2.63,2.14-4.79,4.78-4.79,1.28,0,2.43.51,3.29,1.31.07.34.11.69.11,1.04Z"/>
      <path class="cls-2" d="M532.83,392.84c0,2.63-2.16,4.77-4.79,4.77-1.28,0-2.43-.5-3.29-1.31-.07-.34-.11-.68-.11-1.03,0-2.65,2.14-4.79,4.79-4.79,1.28,0,2.45.5,3.29,1.32.07.34.11.68.11,1.03Z"/>
      <path class="cls-2" d="M527.57,341.15c0,3.75-3.05,6.79-6.8,6.79-2.03,0-3.87-.89-5.11-2.32h0c-.19-.65-.3-1.33-.3-2.03,0-3.75,3.05-6.78,6.8-6.78,2.05,0,3.87.89,5.11,2.32.19.64.3,1.32.3,2.02Z"/>
      <path class="cls-2" d="M572.39,333.9c0,5.7-4.64,10.33-10.36,10.33-3.35,0-6.34-1.6-8.23-4.07-.47-1.18-.73-2.47-.73-3.82,0-5.7,4.64-10.33,10.35-10.33,3.37,0,6.34,1.6,8.25,4.07.47,1.18.73,2.47.73,3.82Z"/>
      <path class="cls-2" d="M520.15,476.92c0,2.21-1.8,4.01-4.02,4.01-.97,0-1.88-.35-2.57-.93-.05-.21-.06-.42-.06-.64,0-2.21,1.79-4.01,4.02-4.01.98,0,1.86.35,2.57.93.05.21.06.42.06.64Z"/>
      <path class="cls-2" d="M556.93,557.3c0,3.66-2.98,6.64-6.65,6.64-1.96,0-3.73-.85-4.95-2.21h0c-.19-.64-.3-1.29-.3-1.98,0-3.66,2.98-6.64,6.65-6.64,1.97,0,3.74.86,4.95,2.22t0,.01c.21.62.3,1.28.3,1.96Z"/>
      <path class="cls-2" d="M515.32,574.18c0,3.11-2.52,5.62-5.63,5.62-1.57,0-3-.65-4.03-1.7-.12-.46-.19-.95-.19-1.46,0-3.11,2.52-5.62,5.62-5.62,1.59,0,3.01.65,4.04,1.7.12.46.19.95.19,1.46Z"/>
    </g>
  </g>
  <g>
    <path class="cls-7" d="M369.71,88.57l-143.16,29.63-27.33,140.62,115.83,110.99,143.16-29.63,27.33-140.62-115.83-110.99ZM408.9,292.92c-31.22,31.17-86.31,27.91-123.04-7.29-36.74-35.2-41.21-89.01-10-120.18,31.22-31.18,86.31-27.91,123.04,7.29,36.74,35.2,41.21,89.01,10,120.18Z"/>
    <path class="cls-8" d="M376.51,76.54l-143.16,29.63-27.33,140.62,115.83,110.99,143.16-29.63,27.33-140.62-115.83-110.99ZM415.71,280.9c-31.22,31.17-86.31,27.91-123.04-7.29-36.74-35.2-41.21-89.01-10-120.18,31.22-31.18,86.31-27.91,123.04,7.29,36.74,35.2,41.21,89.01,10,120.18Z"/>
    <g>
      <path class="cls-5" d="M519.71,199.67c-3.46,11.37-14.27,18.99-27.73,18.19-17.31-1.03-32.5-15.58-33.9-32.49-.81-9.76,3.14-18.18,9.95-23.34,5-3.81,11.53-5.87,18.87-5.43,17.31,1.03,32.49,15.58,33.9,32.49.32,3.77-.08,7.33-1.08,10.59Z"/>
      <path class="cls-5" d="M492.73,340.6c-3.47,11.38-14.27,18.99-27.74,18.19-17.31-1.03-32.49-15.57-33.9-32.49-.81-9.75,3.14-18.17,9.96-23.34,5-3.8,11.53-5.86,18.86-5.43,17.31,1.03,32.5,15.58,33.9,32.49.32,3.77-.08,7.33-1.07,10.58Z"/>
      <path class="cls-5" d="M261.06,118.63c-3.46,11.37-14.27,18.99-27.73,18.19-17.31-1.03-32.5-15.58-33.91-32.49-.81-9.76,3.15-18.18,9.96-23.35,4.99-3.8,11.52-5.86,18.85-5.43,17.32,1.03,32.5,15.58,33.91,32.49.32,3.77-.08,7.33-1.08,10.59Z"/>
      <path class="cls-5" d="M404.58,89.34c-3.47,11.38-14.27,19-27.75,18.2-17.33-1.03-32.53-15.59-33.94-32.52-.81-9.76,3.14-18.18,9.96-23.36,5-3.81,11.54-5.87,18.88-5.43,17.33,1.03,32.53,15.59,33.93,32.52.32,3.77-.08,7.34-1.08,10.6Z"/>
      <path class="cls-5" d="M349.23,369.9c-3.47,11.38-14.27,19-27.73,18.2-17.32-1.03-32.5-15.58-33.91-32.49-.81-9.76,3.14-18.18,9.96-23.35,4.99-3.8,11.52-5.86,18.86-5.43,17.32,1.03,32.5,15.58,33.91,32.49.31,3.77-.08,7.33-1.08,10.58Z"/>
      <path class="cls-5" d="M234.1,259.58c-3.47,11.38-14.28,19-27.76,18.2-17.33-1.03-32.53-15.59-33.93-32.52-.81-9.77,3.14-18.19,9.96-23.36,5-3.81,11.54-5.87,18.87-5.43,17.33,1.03,32.53,15.59,33.94,32.52.32,3.77-.08,7.34-1.08,10.6Z"/>
      <path class="cls-1" d="M519.71,199.67c-4.99,3.8-11.52,5.86-18.86,5.43-17.32-1.03-32.5-15.58-33.91-32.49-.31-3.77.08-7.33,1.08-10.58,5-3.81,11.53-5.87,18.87-5.43,17.31,1.03,32.49,15.58,33.9,32.49.32,3.77-.08,7.33-1.08,10.59Z"/>
      <path class="cls-1" d="M492.73,340.6c-5,3.81-11.53,5.87-18.87,5.43-17.31-1.03-32.5-15.58-33.9-32.5-.32-3.77.08-7.33,1.08-10.58,5-3.8,11.53-5.86,18.86-5.43,17.31,1.03,32.5,15.58,33.9,32.49.32,3.77-.08,7.33-1.07,10.58Z"/>
      <path class="cls-1" d="M261.06,118.63c-4.99,3.8-11.52,5.86-18.86,5.43-17.32-1.03-32.5-15.58-33.91-32.49-.31-3.77.08-7.34,1.09-10.59,4.99-3.8,11.52-5.86,18.85-5.43,17.32,1.03,32.5,15.58,33.91,32.49.32,3.77-.08,7.33-1.08,10.59Z"/>
      <path class="cls-1" d="M404.58,89.34c-5,3.81-11.54,5.87-18.88,5.43-17.33-1.03-32.53-15.59-33.93-32.52-.32-3.77.08-7.34,1.08-10.6,5-3.81,11.54-5.87,18.88-5.43,17.33,1.03,32.53,15.59,33.93,32.52.32,3.77-.08,7.34-1.08,10.6Z"/>
      <path class="cls-1" d="M349.23,369.9c-5,3.81-11.53,5.87-18.87,5.43-17.31-1.03-32.49-15.58-33.9-32.49-.32-3.77.08-7.33,1.08-10.59,4.99-3.8,11.52-5.86,18.86-5.43,17.32,1.03,32.5,15.58,33.91,32.49.31,3.77-.08,7.33-1.08,10.58Z"/>
      <path class="cls-1" d="M234.1,259.58c-5,3.81-11.54,5.87-18.88,5.43-17.33-1.03-32.53-15.59-33.94-32.52-.31-3.77.08-7.34,1.09-10.6,5-3.81,11.54-5.87,18.87-5.43,17.33,1.03,32.53,15.59,33.94,32.52.32,3.77-.08,7.34-1.08,10.6Z"/>
    </g>
  </g>
</svg>