<?xml version="1.0" encoding="UTF-8"?>
<svg id="Calque_2" data-name="Calque 2" xmlns="http://www.w3.org/2000/svg" viewBox="0 0 809.46 529.13">
  <defs>
    <style>
      .cls-1 {
        fill: #8fffff;
      }

      .cls-2 {
        fill: #47cfc7;
      }

      .cls-3 {
        fill: #777ba1;
      }

      .cls-4 {
        fill: #65ede5;
      }

      .cls-5 {
        fill: #c3ffff;
      }
    </style>
  </defs>
  <polygon class="cls-3" points="616.41 292.94 103.19 403.46 46.76 141.42 46.66 140.96 41.32 116.14 41.96 116 554.53 5.63 559.02 26.45 559.86 30.42 616.41 292.94"/>
  <polygon class="cls-1" points="616.41 292.94 103.19 403.46 46.76 141.42 46.66 140.96 41.32 116.14 42.06 116.4 86.5 132.37 131.84 148.64 239.67 187.38 332.37 220.68 407.66 147.8 484.85 73.07 520.06 38.99 554.53 5.63 559.02 26.45 559.86 30.42 616.41 292.94"/>
  <polygon class="cls-2" points="103.18 403.46 307.79 101.17 616.41 292.94 103.18 403.46"/>
  <polygon class="cls-4" points="103.18 403.46 312.84 118.61 616.41 292.94 103.18 403.46"/>
  <path class="cls-2" d="M554.53,5.63L41.32,116.14l2.46,10.19c2.22,9.19,8.34,16.96,16.76,21.26l219.95,112.4c37.82,19.2,90.27,7.64,116.56-25.68l152.96-191.56c6.24-7.81,8.63-18.01,6.53-27.78l-2.01-9.36Z"/>
  <path class="cls-5" d="M554.53,5.63L41.32,116.14l2.46,10.19c2.22,9.19,8.34,16.96,16.76,21.26l219.81,101.68c37.82,19.2,90.27,7.64,116.56-25.68l153.09-180.84c6.24-7.81,8.63-18.01,6.53-27.78l-2.01-9.36Z"/>
</svg>