<?xml version="1.0" encoding="UTF-8"?>
<svg id="Calque_1" data-name="Calque 1" xmlns="http://www.w3.org/2000/svg" xmlns:xlink="http://www.w3.org/1999/xlink" viewBox="0 0 700 700">
  <defs>
    <style>
      .cls-1 {
        fill: aqua;
      }

      .cls-2 {
        fill: url(#Dégradé_sans_nom_48-2);
      }

      .cls-3 {
        fill: url(#Dégradé_sans_nom_307-3);
      }

      .cls-4 {
        fill: url(#Dégradé_sans_nom_75);
      }

      .cls-5 {
        fill: url(#Dégradé_sans_nom_697-2);
      }

      .cls-6 {
        fill: #0041c5;
      }

      .cls-7 {
        fill: url(#Dégradé_sans_nom_678-3);
      }

      .cls-8 {
        fill: url(#Dégradé_sans_nom_697);
      }

      .cls-9 {
        fill: url(#Dégradé_sans_nom_697-4);
      }

      .cls-10 {
        fill: url(#Dégradé_sans_nom_449-2);
      }

      .cls-11 {
        fill: url(#Dégradé_sans_nom_449);
      }

      .cls-12 {
        fill: #662d91;
      }

      .cls-13 {
        fill: #140020;
      }

      .cls-14 {
        fill: url(#Dégradé_sans_nom_697-3);
      }

      .cls-15 {
        fill: url(#Dégradé_sans_nom_607);
      }

      .cls-16 {
        fill: url(#Dégradé_sans_nom_48);
      }

      .cls-17 {
        fill: url(#Dégradé_sans_nom_307-2);
      }

      .cls-18 {
        fill: url(#Dégradé_sans_nom_307);
      }

      .cls-19 {
        fill: url(#Dégradé_sans_nom_75-2);
      }

      .cls-20 {
        fill: url(#Dégradé_sans_nom_678);
      }

      .cls-21 {
        fill: url(#Dégradé_sans_nom_678-2);
      }
    </style>
    <linearGradient id="Dégradé_sans_nom_607" data-name="Dégradé sans nom 607" x1="118.12" y1="118.12" x2="581.88" y2="581.88" gradientUnits="userSpaceOnUse">
      <stop offset="0" stop-color="#007bff"/>
      <stop offset="1" stop-color="#8c009f"/>
    </linearGradient>
    <linearGradient id="Dégradé_sans_nom_307" data-name="Dégradé sans nom 307" x1="197.42" y1="529.9" x2="334.5" y2="529.9" gradientTransform="translate(43.36 -23.49) rotate(1.61) scale(.68 .99) skewX(6.4)" gradientUnits="userSpaceOnUse">
      <stop offset="0" stop-color="#0071bc"/>
      <stop offset=".18" stop-color="#036cbe"/>
      <stop offset=".37" stop-color="#0e5fc5"/>
      <stop offset=".57" stop-color="#2149d2"/>
      <stop offset=".78" stop-color="#3a2ae3"/>
      <stop offset=".98" stop-color="#5b03f9"/>
      <stop offset="1" stop-color="#5f00fc"/>
    </linearGradient>
    <linearGradient id="Dégradé_sans_nom_307-2" data-name="Dégradé sans nom 307" x1="317.2" y1="656.41" x2="317.2" y2="657.19" gradientTransform="matrix(1,0,0,1,0,0)" xlink:href="#Dégradé_sans_nom_307"/>
    <linearGradient id="Dégradé_sans_nom_307-3" data-name="Dégradé sans nom 307" x1="397.29" y1="370.51" x2="397.29" y2="656.41" gradientTransform="matrix(1,0,0,1,0,0)" xlink:href="#Dégradé_sans_nom_307"/>
    <linearGradient id="Dégradé_sans_nom_697" data-name="Dégradé sans nom 697" x1="338.2" y1="191.71" x2="352.97" y2="206.48" gradientTransform="translate(-81.17 141.77) rotate(-20.8)" gradientUnits="userSpaceOnUse">
      <stop offset="0" stop-color="#4a2df5"/>
      <stop offset=".03" stop-color="#4528e1"/>
      <stop offset=".12" stop-color="#391fb4"/>
      <stop offset=".21" stop-color="#2f168c"/>
      <stop offset=".3" stop-color="#270f6a"/>
      <stop offset=".41" stop-color="#200a4f"/>
      <stop offset=".52" stop-color="#1a053a"/>
      <stop offset=".64" stop-color="#16022b"/>
      <stop offset=".78" stop-color="#140022"/>
      <stop offset="1" stop-color="#140020"/>
    </linearGradient>
    <linearGradient id="Dégradé_sans_nom_697-2" data-name="Dégradé sans nom 697" x1="338.2" y1="191.71" x2="352.97" y2="206.48" gradientTransform="translate(-26.51 34.63) rotate(-5.53)" xlink:href="#Dégradé_sans_nom_697"/>
    <linearGradient id="Dégradé_sans_nom_697-3" data-name="Dégradé sans nom 697" x1="338.2" y1="191.71" x2="352.97" y2="206.48" gradientTransform="translate(54.45 -54.32) rotate(9.75)" xlink:href="#Dégradé_sans_nom_697"/>
    <linearGradient id="Dégradé_sans_nom_697-4" data-name="Dégradé sans nom 697" x1="338.2" y1="191.71" x2="352.97" y2="206.48" gradientTransform="translate(155.99 -118.79) rotate(25.03)" xlink:href="#Dégradé_sans_nom_697"/>
    <linearGradient id="Dégradé_sans_nom_48" data-name="Dégradé sans nom 48" x1="454.79" y1="165.46" x2="496.4" y2="207.06" gradientUnits="userSpaceOnUse">
      <stop offset="0" stop-color="#2e3192"/>
      <stop offset=".06" stop-color="#3c3693"/>
      <stop offset=".53" stop-color="#a45aa0"/>
      <stop offset=".85" stop-color="#e571a8"/>
      <stop offset="1" stop-color="#ff7bac"/>
    </linearGradient>
    <linearGradient id="Dégradé_sans_nom_75" data-name="Dégradé sans nom 75" x1="503.6" y1="180.45" x2="409.24" y2="180.45" gradientUnits="userSpaceOnUse">
      <stop offset="0" stop-color="#4d35bc"/>
      <stop offset=".12" stop-color="#4a32b4"/>
      <stop offset=".3" stop-color="#432ba1"/>
      <stop offset=".52" stop-color="#372181"/>
      <stop offset=".76" stop-color="#271154"/>
      <stop offset="1" stop-color="#140020"/>
    </linearGradient>
    <linearGradient id="Dégradé_sans_nom_48-2" data-name="Dégradé sans nom 48" x1="306.6" y1="165.5" x2="348.21" y2="207.1" gradientTransform="translate(552.64) rotate(-180) scale(1 -1)" xlink:href="#Dégradé_sans_nom_48"/>
    <linearGradient id="Dégradé_sans_nom_75-2" data-name="Dégradé sans nom 75" x1="355.4" y1="180.49" x2="261.05" y2="180.49" gradientTransform="translate(552.64) rotate(-180) scale(1 -1)" xlink:href="#Dégradé_sans_nom_75"/>
    <linearGradient id="Dégradé_sans_nom_449" data-name="Dégradé sans nom 449" x1="324.47" y1="295.03" x2="210.03" y2="295.03" gradientTransform="translate(567.23 64.14) rotate(-171.36) scale(.95 -1) skewX(-.85)" gradientUnits="userSpaceOnUse">
      <stop offset="0" stop-color="#3135bc"/>
      <stop offset=".14" stop-color="#2a2898"/>
      <stop offset=".33" stop-color="#221a6d"/>
      <stop offset=".52" stop-color="#1c0e4b"/>
      <stop offset=".7" stop-color="#170633"/>
      <stop offset=".86" stop-color="#140125"/>
      <stop offset="1" stop-color="#140020"/>
    </linearGradient>
    <linearGradient id="Dégradé_sans_nom_449-2" data-name="Dégradé sans nom 449" x1="477.43" y1="317.11" x2="363" y2="317.11" gradientTransform="translate(-14.6 64.14) rotate(-8.64) scale(.95 1) skewX(-.85)" xlink:href="#Dégradé_sans_nom_449"/>
    <linearGradient id="Dégradé_sans_nom_678" data-name="Dégradé sans nom 678" x1="361.21" y1="98.58" x2="390.4" y2="127.78" gradientUnits="userSpaceOnUse">
      <stop offset="0" stop-color="#005bff"/>
      <stop offset="1" stop-color="#4e009f"/>
    </linearGradient>
    <linearGradient id="Dégradé_sans_nom_678-2" data-name="Dégradé sans nom 678" x1="-96.72" y1="127.78" x2="-125.91" y2="98.58" gradientTransform="translate(212.88) rotate(-180) scale(1 -1)" xlink:href="#Dégradé_sans_nom_678"/>
    <linearGradient id="Dégradé_sans_nom_678-3" data-name="Dégradé sans nom 678" x1="338.22" y1="93.77" x2="364.18" y2="141.27" gradientTransform="translate(-55.67 -51.53) rotate(9.69) scale(1.22 .8)" xlink:href="#Dégradé_sans_nom_678"/>
  </defs>
  <g>
    <circle class="cls-13" cx="350" cy="350" r="350"/>
    <g>
      <path class="cls-13" d="M658.94,350c0,170.62-138.32,308.94-308.94,308.94-10.62,0-21.12-.54-31.47-1.59-.52-.05-1.04-.1-1.56-.16-.04,0-.09,0-.13-.02-.51-.04-1.01-.1-1.51-.16-154.3-17.23-274.27-148.11-274.27-307.01,0-170.62,138.32-308.94,308.94-308.94s308.94,138.32,308.94,308.94Z"/>
      <path class="cls-15" d="M350,677.94c-11.12,0-22.35-.57-33.38-1.69-.48-.05-.99-.09-1.49-.15-.16-.01-.34-.03-.54-.06-.5-.05-.97-.1-1.41-.15-79.59-8.89-153.11-46.73-206.96-106.55-54.26-60.27-84.15-138.17-84.15-219.34,0-44.27,8.67-87.21,25.77-127.65,16.52-39.05,40.16-74.12,70.28-104.24s65.18-53.76,104.24-70.28c40.43-17.1,83.38-25.77,127.65-25.77s87.21,8.67,127.65,25.77c39.05,16.52,74.12,40.16,104.24,70.28,30.12,30.11,53.76,65.18,70.28,104.24,17.1,40.43,25.78,83.38,25.78,127.65s-8.67,87.21-25.78,127.65c-16.52,39.05-40.16,74.12-70.28,104.24s-65.19,53.76-104.24,70.28c-40.43,17.1-83.38,25.78-127.65,25.78ZM316.76,665.09c.31.03.63.06.95.09,10.69,1.08,21.55,1.63,32.3,1.63,174.7,0,316.82-142.12,316.82-316.82S524.7,33.18,350,33.18,33.18,175.3,33.18,350c0,161.58,120.92,296.94,281.26,314.84.5.06.96.12,1.43.15l.88.1Z"/>
    </g>
  </g>
  <g>
    <g>
      <g>
        <path class="cls-18" d="M208.12,437.44c-1.04,3.12-1.93,6.27-2.59,9.48-4.99,24.09-4.34,49.33,1.81,73.2,3.04,11.81,7.39,23.35,13.53,33.94,6.53,11.26,14.98,21.31,23.39,31.29,16.51,19.59,34.19,40.01,58.45,48.68-7.16-18.75-11.03-38.71-11.37-58.72-.08-4.52-.02-9.24-2.07-13.28-5.04-9.94-17.85-13.28-23.66-23-8.1-13.57-17.11-27.12-23.01-42.11-13.89-35.29-15.84-73.65-15.23-111.04-2.81,17.76-13.43,34.09-19.26,51.57Z"/>
        <path class="cls-13" d="M305.2,636.45l-2.98-1.06c-25.31-9.04-44.04-31.26-59.08-49.11-8.32-9.88-16.93-20.09-23.54-31.5-5.78-9.97-10.38-21.52-13.68-34.3-6.21-24.09-6.84-49.63-1.82-73.84.64-3.09,1.5-6.24,2.64-9.64,2.27-6.81,5.29-13.5,8.21-19.98,4.57-10.14,9.3-20.63,10.99-31.36l2.9.26c-.56,34.22.81,74.1,15.13,110.5,4.75,12.07,11.63,23.36,18.29,34.27,1.55,2.55,3.1,5.09,4.62,7.63,2.65,4.45,6.84,7.47,11.27,10.67,4.76,3.43,9.67,6.98,12.43,12.43,2.08,4.1,2.15,8.67,2.21,13.09v.82c.35,19.95,4.14,39.54,11.29,58.23l1.12,2.92ZM225.82,398.15c-2.26,6.84-5.26,13.51-8.21,20.04-2.89,6.41-5.88,13.04-8.1,19.71h0c-1.1,3.29-1.93,6.34-2.55,9.32-4.93,23.79-4.31,48.88,1.79,72.56,3.23,12.53,7.73,23.83,13.38,33.58,6.48,11.18,15.01,21.3,23.25,31.08,14.21,16.87,31.76,37.69,54.85,47.11-6.54-18.1-10.02-36.99-10.35-56.21v-.82c-.07-4.1-.14-8.33-1.92-11.84-2.44-4.82-6.86-8.01-11.54-11.38-4.48-3.23-9.11-6.57-12.07-11.53-1.51-2.53-3.05-5.06-4.6-7.6-6.72-11.02-13.66-22.41-18.51-34.72-12.81-32.56-15.39-67.74-15.43-99.29Z"/>
      </g>
      <g>
        <path class="cls-17" d="M317.31,657.19s-.09,0-.13-.02c-.05-.25-.07-.5-.08-.76.07.26.14.52.21.78Z"/>
        <path class="cls-3" d="M522.7,484.97c-.75,21.37-5.09,43.68-17.12,61.8-10.01,15.08-27.15,25.98-42.73,34.94-34.2,19.66-72.53,30.74-109.18,44.99-3.82,1.49-12.42,7.11-18.92,12.74-4.03,3.48-7.26,6.97-8.05,9.47,8.59-27.06,36.38-43.5,62-51.89,45.84-15.01,86.44-38.53,106.75-83.42,8.78-19.41,10.28-43.13,13.02-64.52.25-1.99.52-3.95.8-5.89-.26,1.79-.54,3.57-.85,5.35-5.35,31.15-17.8,61.36-37.29,86.45-21.49,27.64-50.18,40.17-82.3,53.16-14.63,4.76-30.45,11.73-42.53,21.24-.76.59-1.49,1.21-2.21,1.86-10.8,9.83-17.23,25.76-24.6,38.26-1.24,2.11-2.5,4.58-2.39,6.9-3.22-11.78-7.04-23.87-15.74-32.46-14.76-14.57-24.66-26.96-28.89-48.22-4.52-22.74,10.29-51.54,19.51-72.13-8.62,19.25,5.91,49.99,18.66,64.11-3.62-4.01,37.11-33.07,42.26-35.9,31.6-17.31,72.49-25.12,96.71-53.42,20.6-24.07,28.82-57.98,21.51-88.74,10.47,20.41,21.21,42.71,19.14,65.03,2.13-8.52,6.89-16.47,10.51-24.61,7.02-15.78,13.65-42.3,8.69-59.56,10.68,37.14,14.6,75.91,13.24,114.46Z"/>
        <path class="cls-13" d="M510.86,370.12l-1.4.39-1.41.38c4.71,16.37-1.17,41.85-8.62,58.6-1.07,2.4-2.26,4.83-3.41,7.19-1.42,2.89-2.85,5.82-4.12,8.8-1-18.73-9.72-37.45-19.48-56.47l-5.51-10.75,2.79,11.72c7.19,30.27-.93,63.79-21.21,87.48-16.05,18.77-39.93,28.55-63.02,38.01-11.24,4.61-22.86,9.37-33.28,15.08-2.81,1.54-36.35,24.72-42.32,34.05-12.4-15.07-24.4-42.9-16.55-60.41l-1.34-.59-1.34-.59c-.91,2.05-1.88,4.17-2.88,6.36-9.31,20.36-20.88,45.71-16.72,66.64,4.17,20.97,13.51,33.38,29.29,48.95,8.58,8.48,12.28,20.53,15.3,31.59.01.15.02.31.04.46.5.06,1,.12,1.51.16.04.02.09.02.13.02.52.06,1.04.11,1.56.16-.11-.39-.21-.78-.32-1.17-.01-1.87,1.06-4,2.21-5.94,1.97-3.35,3.83-6.86,5.8-10.57,2.65-4.99,5.34-10.07,8.35-14.78,3-4.71,6.31-9.05,10.18-12.57.69-.64,1.41-1.24,2.12-1.81,13.05-10.27,30.09-17.09,42.08-20.99l.1-.04c34.06-13.77,61.8-26.47,82.9-53.61,14.07-18.11,24.8-39.2,31.7-62.1-1.86,13.74-4.47,27.32-9.87,39.24-17.39,38.42-51.04,64.68-105.89,82.64-19.24,6.3-53,21.54-62.93,52.83l2.79.87c.37-1.15,1.84-3.83,7.62-8.83,6.55-5.66,15-11.12,18.5-12.48,9.97-3.87,20.25-7.58,30.19-11.16,26.64-9.62,54.2-19.56,79.19-33.93,16.57-9.52,33.27-20.4,43.22-35.39,10.62-16,16.46-37.04,17.35-62.53,1.43-40.6-3.04-79.26-13.3-114.91ZM521.24,484.91c-.87,24.96-6.55,45.51-16.88,61.06-9.62,14.5-25.99,25.14-42.25,34.49-24.77,14.24-52.2,24.14-78.73,33.71-9.95,3.59-20.24,7.3-30.25,11.19-4.26,1.66-13.12,7.61-19.35,12.99-.59.51-1.15,1.01-1.68,1.5,12.68-23.75,40.44-36.02,57.06-41.46,55.69-18.24,89.88-44.99,107.63-84.2,7.45-16.46,9.69-35.74,11.86-54.38.12-1.04.17-2.25.17-3.54,0-2.33-.16-4.92-.35-7.19-.02-.18-.03-.36-.05-.54-.28-3.15-.6-5.56-.6-5.56-4.96,34.13-18.05,65.65-37.85,91.13-20.65,26.56-48.02,39.08-81.66,52.68-12.21,3.99-29.56,10.95-42.93,21.47-.77.6-1.53,1.26-2.28,1.93-8.11,7.39-13.71,17.93-19.13,28.13-1.95,3.69-3.8,7.17-5.74,10.46-.41.69-.81,1.4-1.16,2.13-2.88-9.76-6.91-20.31-14.68-27.98-15.37-15.17-24.46-27.23-28.48-47.47-3.63-18.25,5.49-40.54,14.04-59.48-.38,18.42,10.79,40.71,21.6,52.69l1.09-.96,1.09-.96c.11.13.14.27.14.32.15-4.58,35.61-30.64,41.75-34,10.27-5.63,21.82-10.36,32.98-14.93,23.41-9.6,47.62-19.52,64.13-38.81,18.64-21.78,27.29-51.63,23.64-79.95,8.9,18.21,20.41,39.76,13.38,62.15.14-.31.9-1.97,1.96-4.31.01,0,.01-.01.01-.02.12-.25.23-.51.36-.77,2.64-5.8,6.8-14.88,8.57-18.49,1.16-2.38,2.37-4.83,3.46-7.28,5.25-11.81,9.73-27.9,10.43-42.34,6.97,30.42,9.89,62.83,8.7,96.59Z"/>
      </g>
    </g>
    <g>
      <g>
        <g>
          <path class="cls-1" d="M377.15,280.29c5.04.44,27.01,11.34,38.05,10.48,20.94-1.63,32.38-33.43,32.38-33.43,0,0-8.12-5.18-28.29-5.56-.51,0-1.03-.02-1.56-.02-2.11,0-4.2.29-6.27.81-18.49,4.63-34.32,27.72-34.32,27.72Z"/>
          <path class="cls-13" d="M408.97,259.88c0,10.04,5.06,18.17,5.06,18.17,0,0,5.07-8.14,5.07-18.17,0-4.17-.87-8-1.89-11.06-.43,0-.87-.02-1.31-.02-1.78,0-3.54.26-5.27.75-.91,2.93-1.66,6.49-1.66,10.33Z"/>
        </g>
        <g>
          <path class="cls-1" d="M322.54,280.29c-5.04.44-27.01,11.34-38.05,10.48-20.94-1.63-32.38-33.43-32.38-33.43,0,0,8.12-5.18,28.29-5.56.51,0,1.03-.02,1.56-.02,2.11,0,4.2.29,6.27.81,18.49,4.63,34.32,27.72,34.32,27.72Z"/>
          <path class="cls-13" d="M290.72,259.88c0,10.04-5.06,18.17-5.06,18.17,0,0-5.07-8.14-5.07-18.17,0-4.17.87-8,1.89-11.06.43,0,.87-.02,1.31-.02,1.78,0,3.54.26,5.27.75.91,2.93,1.66,6.49,1.66,10.33Z"/>
        </g>
      </g>
      <g>
        <g id="_Répétition_radiale_" data-name="&amp;lt;Répétition radiale&amp;gt;">
          <path class="cls-8" d="M317.86,218.04c-.1.06-.2.11-.31.15-1.03.39-2.19-.13-2.58-1.16l-8.48-22.32c-.39-1.03.12-2.18,1.16-2.58,1.03-.39,2.19.13,2.58,1.16l8.48,22.32c.35.92-.03,1.95-.85,2.43Z"/>
        </g>
        <g id="_Répétition_radiale_-2" data-name="&amp;lt;Répétition radiale&amp;gt;">
          <path class="cls-5" d="M338.32,213.34c-.11.03-.22.05-.34.06-1.1.11-2.08-.7-2.18-1.8l-2.3-23.77c-.11-1.1.69-2.07,1.8-2.18,1.1-.11,2.08.7,2.18,1.8l2.3,23.77c.1.98-.54,1.87-1.46,2.12Z"/>
        </g>
        <g id="_Répétition_radiale_-3" data-name="&amp;lt;Répétition radiale&amp;gt;">
          <path class="cls-14" d="M359.29,214.21c-.11,0-.23,0-.34-.03-1.09-.19-1.82-1.22-1.63-2.31l4.04-23.53c.19-1.09,1.21-1.82,2.31-1.63,1.09.19,1.82,1.22,1.63,2.31l-4.04,23.53c-.17.97-1.01,1.66-1.97,1.66Z"/>
        </g>
        <g id="_Répétition_radiale_-4" data-name="&amp;lt;Répétition radiale&amp;gt;">
          <path class="cls-9" d="M379.3,220.57c-.11-.03-.22-.07-.32-.12-1-.47-1.43-1.66-.97-2.66l10.1-21.64c.47-1,1.65-1.44,2.66-.97,1,.47,1.43,1.66.97,2.66l-10.1,21.64c-.42.9-1.41,1.34-2.34,1.08Z"/>
        </g>
      </g>
      <g>
        <g>
          <path class="cls-16" d="M489.32,151.91c-7.48,25.46-13.63,50.88-15.61,77.67-.06.87-2.21.68-1.43.83-7.73-5.13-13.18-13.39-19.29-20.68-1.56-1.86-3.14-4.52-1.99-6.72,1.08-2.05,3.73-2.09,5.88-1.87,3.07.32,6.13.64,9.2.96-2.62-1.11-5.42-2.39-6.84-5.03-1.42-2.64-.38-6.96,2.41-7.3,1.9-.23,6.99.36,8.32,1.85-1.95-2.58-11.38-18.26-15.35-26,6.51,2.69,13.02,5.38,19.54,8.07-2.55-4.51-4.25-9.58-4.96-14.83,2.49,1.09,4.19,5.04,6.52,6.49-3.22-1.36-2.83-9.4-.5-12.2,2.33-2.8,6.15-3.43,9.59-3.12s4.73,1.1,4.5,1.87Z"/>
          <path class="cls-13" d="M472.28,231.44c-.06,0-.13,0-.2-.02-.41-.08-.65-.25-.8-.44-5.87-4.02-10.47-9.83-14.93-15.45-1.35-1.71-2.75-3.47-4.16-5.14-2.51-2.99-3.24-5.71-2.11-7.86,1.4-2.66,4.61-2.65,6.9-2.41l3.96.41c-1.05-.79-1.96-1.75-2.62-2.98-1-1.86-1-4.49-.01-6.41.72-1.38,1.86-2.24,3.21-2.4,1.12-.14,3.49-.02,5.61.48-3.58-5.64-10.23-16.89-13.43-23.14-.2-.38-.13-.85.16-1.17.29-.32.75-.42,1.15-.25l16.93,6.99c-1.88-3.95-3.17-8.28-3.77-12.66-.05-.37.1-.74.4-.96.3-.22.69-.27,1.03-.12,1.04.46,1.93,1.29,2.75,2.23-.09-2.89.7-6.02,2.06-7.66,2.22-2.66,5.93-3.9,10.48-3.48,2.84.26,4.53.84,5.16,1.78.29.43.37.93.23,1.4t0,0c-6.51,22.14-13.45,48.66-15.57,77.45-.08,1.15-1.21,1.5-1.9,1.63-.16.1-.35.16-.55.16ZM455.31,202.09c-1.8,0-2.89.46-3.39,1.41-.94,1.79.77,4.26,1.87,5.58,1.42,1.7,2.83,3.47,4.19,5.19,4.35,5.49,8.84,11.15,14.44,15,.12-.02.21-.04.29-.06,2.15-28.77,9.06-55.22,15.55-77.34-.28-.18-1.16-.59-3.53-.81-2.22-.2-6.32-.12-8.71,2.75-1.36,1.63-1.99,5.59-1.33,8.31.16.66.39,1.21.67,1.61.3.3.61.56.92.75.46.29.61.87.37,1.35-.25.48-.82.68-1.32.47-.6-.25-1.11-.67-1.54-1.23-.64-.65-1.23-1.41-1.81-2.15-.42-.54-.85-1.09-1.29-1.58.85,4.17,2.35,8.22,4.39,11.84.22.38.17.86-.12,1.19-.29.33-.76.44-1.16.27l-16.9-6.98c4.37,8.08,12.17,21.02,13.93,23.34.33.44.26,1.06-.17,1.42-.42.35-1.05.3-1.42-.11-.95-1.06-5.51-1.75-7.43-1.52-.84.1-1.34.76-1.62,1.3-.69,1.33-.69,3.21,0,4.49,1.22,2.26,3.59,3.41,6.34,4.57.47.2.72.71.6,1.21-.13.49-.61.82-1.1.77l-9.2-.96c-.54-.06-1.02-.08-1.47-.08ZM489.32,151.91h.01-.01Z"/>
        </g>
        <g>
          <path class="cls-4" d="M437.05,160.45c11.03-9.3,22.65-17.84,34.76-25.55,10.03-6.38,20.55-11.01,31.78-14.51-1.18,8.99-15.81,96.44-25.27,120.13-2.39-.35-5.14-1.62-6.48-3.82-1.06-1.74-.87-3.97-.64-6.01,3.31-29.33,9.02-58,15.96-86.63-21.68,12.13-41.69,27.48-59.25,45.46-4.01,4.1-14.47,11.95-18.24,2.64-2.94-7.27,9.94-15.97,14.18-19.95,4.3-4.04,8.69-7.95,13.19-11.74Z"/>
          <path class="cls-13" d="M478.33,241.54c-.05,0-.1,0-.15-.01-2.44-.36-5.61-1.68-7.21-4.31-1.19-1.97-1.05-4.27-.78-6.66,2.94-25.99,7.85-52.89,15.42-84.45-20.84,11.91-39.99,26.74-56.96,44.12-.84.86-8.45,8.4-14.67,7.18-2.37-.47-4.14-2.11-5.26-4.88-2.71-6.69,5.89-13.88,11.58-18.63,1.14-.96,2.13-1.78,2.85-2.46,4.29-4.03,8.75-8,13.23-11.78,11.05-9.32,22.79-17.94,34.87-25.63,9.6-6.11,20.08-10.9,32.03-14.63.33-.1.7-.03.97.19.27.23.4.57.36.92-1.23,9.43-15.83,96.6-25.33,120.38-.16.4-.54.65-.96.65ZM487.17,143.01c.22,0,.44.07.62.21.33.25.47.66.38,1.06-7.87,32.48-12.94,59.97-15.93,86.5-.23,2.02-.36,3.95.49,5.36,1.06,1.75,3.18,2.77,4.95,3.19,9.03-23.64,22.46-102.57,24.67-117.48-11.13,3.6-20.95,8.16-29.98,13.9-12.01,7.64-23.67,16.21-34.65,25.47l-.66-.79.66.79c-4.46,3.76-8.88,7.7-13.15,11.7-.77.72-1.77,1.56-2.94,2.54-4.91,4.11-13.13,10.98-10.99,16.28.86,2.11,2.08,3.3,3.75,3.63,4.22.83,10.22-3.95,12.8-6.6,17.67-18.08,37.68-33.44,59.49-45.64.16-.09.33-.13.5-.13Z"/>
        </g>
      </g>
      <path class="cls-12" d="M349.85,311.76l12.3-13.57-2.45-2.02c-5.72-4.71-13.98-4.71-19.7,0l-2.45,2.02,12.3,13.57Z"/>
      <g>
        <g>
          <path class="cls-2" d="M211.51,151.95c7.48,25.46,13.63,50.88,15.61,77.67.06.87,2.21.68,1.43.83,7.73-5.13,13.18-13.39,19.29-20.68,1.56-1.86,3.14-4.52,1.99-6.72-1.08-2.05-3.73-2.09-5.88-1.87-3.07.32-6.13.64-9.2.96,2.62-1.11,5.42-2.39,6.84-5.03s.38-6.96-2.41-7.3c-1.9-.23-6.99.36-8.32,1.85,1.95-2.58,11.38-18.26,15.35-26-6.51,2.69-13.02,5.38-19.54,8.07,2.55-4.51,4.25-9.58,4.96-14.83-2.49,1.09-4.19,5.04-6.52,6.49,3.22-1.36,2.83-9.4.5-12.2-2.33-2.8-6.15-3.43-9.59-3.12s-4.73,1.1-4.5,1.87Z"/>
          <path class="cls-13" d="M228.55,231.48c-.2,0-.39-.06-.55-.16-.69-.13-1.82-.48-1.9-1.63-2.12-28.79-9.06-55.31-15.57-77.45h0c-.14-.48-.06-.98.23-1.41.64-.94,2.33-1.52,5.16-1.78,4.54-.42,8.26.82,10.48,3.48,1.36,1.63,2.15,4.77,2.06,7.66.82-.94,1.7-1.77,2.75-2.23.34-.15.74-.1,1.03.12.3.22.45.59.4.96-.6,4.39-1.89,8.71-3.77,12.66l16.93-6.99c.4-.16.86-.06,1.15.25.29.32.36.78.16,1.17-3.2,6.25-9.85,17.5-13.43,23.14,2.12-.5,4.5-.61,5.61-.48,1.35.16,2.49,1.01,3.21,2.4.99,1.92.99,4.56,0,6.41-.67,1.23-1.59,2.2-2.62,2.97l3.96-.41c2.29-.24,5.5-.25,6.9,2.41,1.13,2.15.4,4.86-2.11,7.86-1.41,1.68-2.8,3.44-4.16,5.15-4.45,5.62-9.05,11.42-14.93,15.45-.15.19-.39.36-.8.44-.07.01-.13.02-.19.02ZM228.15,229.55h.01-.01ZM228.12,229.25c.07.02.17.04.29.06,5.6-3.85,10.1-9.52,14.44-15,1.36-1.72,2.77-3.49,4.19-5.19,1.1-1.31,2.81-3.79,1.87-5.58-.62-1.18-2.17-1.61-4.86-1.32l-9.2.96c-.5.05-.98-.27-1.1-.77-.13-.49.13-1.01.59-1.21,2.75-1.17,5.12-2.32,6.34-4.57.69-1.27.68-3.16,0-4.49-.28-.54-.79-1.2-1.62-1.3-1.92-.23-6.48.46-7.43,1.52-.37.41-1,.46-1.42.11s-.5-.98-.17-1.42c1.76-2.32,9.55-15.25,13.92-23.34l-16.9,6.98c-.41.17-.87.06-1.16-.27-.29-.33-.34-.81-.13-1.19,2.04-3.62,3.54-7.67,4.39-11.84-.44.49-.87,1.04-1.29,1.58-.58.74-1.17,1.5-1.82,2.15-.43.56-.95.98-1.54,1.23-.5.21-1.07,0-1.32-.47s-.09-1.06.37-1.35c.31-.19.61-.45.92-.75.28-.4.51-.95.67-1.61.66-2.72.02-6.68-1.33-8.31-2.39-2.87-6.48-2.95-8.71-2.75-2.38.22-3.25.62-3.53.8,6.5,22.12,13.4,48.58,15.55,77.34ZM212.5,151.66h0Z"/>
        </g>
        <g>
          <path class="cls-19" d="M263.78,160.49c-11.03-9.3-22.65-17.84-34.76-25.55-10.03-6.38-20.55-11.01-31.78-14.51,1.18,8.99,15.81,96.44,25.27,120.13,2.39-.35,5.14-1.62,6.48-3.82,1.06-1.74.87-3.97.64-6.01-3.31-29.33-9.02-58-15.96-86.63,21.68,12.13,41.69,27.48,59.25,45.46,4.01,4.1,14.47,11.95,18.24,2.64,2.94-7.27-9.94-15.97-14.18-19.95-4.3-4.04-8.69-7.95-13.19-11.74Z"/>
          <path class="cls-13" d="M222.5,241.58c-.42,0-.8-.25-.96-.65-9.5-23.78-24.1-110.95-25.33-120.38-.05-.35.09-.7.36-.92.27-.23.64-.3.97-.19,11.95,3.73,22.43,8.52,32.03,14.63,12.09,7.69,23.82,16.32,34.87,25.63,4.49,3.78,8.94,7.75,13.23,11.78.72.68,1.71,1.5,2.85,2.46,5.69,4.75,14.29,11.94,11.58,18.63-1.12,2.77-2.89,4.41-5.26,4.88-6.23,1.23-13.83-6.32-14.67-7.18-16.97-17.37-36.13-32.21-56.96-44.12,7.58,31.56,12.49,58.45,15.42,84.45.2,1.8.51,4.53-.78,6.66-1.6,2.63-4.77,3.95-7.21,4.31-.05,0-.1.01-.15.01ZM198.48,121.9c2.21,14.9,15.63,93.84,24.67,117.48,1.77-.42,3.89-1.44,4.95-3.19.86-1.41.72-3.34.5-5.37-3-26.54-8.06-54.03-15.93-86.5-.1-.4.05-.82.38-1.06.33-.25.77-.28,1.13-.08,21.8,12.2,41.82,27.56,59.49,45.64,2.59,2.65,8.59,7.43,12.8,6.6,1.66-.33,2.89-1.52,3.75-3.63,2.14-5.3-6.08-12.17-10.99-16.28-1.17-.98-2.17-1.82-2.94-2.54-4.27-4.01-8.69-7.95-13.15-11.7-10.98-9.25-22.64-17.82-34.65-25.47-9.03-5.74-18.85-10.3-29.98-13.9Z"/>
        </g>
      </g>
      <g>
        <g>
          <path class="cls-11" d="M238,294.75c-7.03-11.85-11.21-27.2-5.5-40.24-10.7,29.99-12.17,58.06-.22,85.06,9.62,21.73,22.29,31.43,45.19,35.46,31.95,5.62,45.9-10.71,50.59-40.34.35-2.24-.22-5.54-2.38-5.37-32.09.53-68.57-2.35-87.68-34.57Z"/>
          <path class="cls-13" d="M289.32,377.18c-3.73,0-7.73-.38-12-1.13-23.37-4.11-36.24-14.21-45.9-36.03-10.75-24.28-11.26-50.77-1.53-80.81.43-1.72,1.01-3.43,1.75-5.13.22-.5.77-.72,1.24-.51.47.22.7.8.51,1.32-.59,1.65-1.15,3.29-1.68,4.92-3.51,14.16,3.58,28.47,7.09,34.39h0c18.35,30.92,52.59,34.66,86.86,34.09.84-.07,1.65.28,2.26,1,1.14,1.36,1.37,3.78,1.08,5.57-4.52,28.61-17.25,42.31-39.68,42.31ZM228.9,269.53c-6.52,25.57-5.11,48.46,4.25,69.6,9.35,21.12,21.82,30.9,44.48,34.88,28.71,5.04,44.44-7.5,49.5-39.5.23-1.47-.04-3.16-.61-3.84-.21-.25-.45-.35-.76-.33-34.87.59-69.7-3.27-88.55-35.04h0c-2.81-4.74-7.82-14.66-8.3-25.78Z"/>
        </g>
        <g>
          <path class="cls-10" d="M461.69,294.71c7.03-11.85,11.21-27.2,5.5-40.24,10.7,29.99,12.17,58.06.22,85.06-9.62,21.73-22.29,31.43-45.19,35.46-31.95,5.62-45.9-10.71-50.59-40.34-.35-2.24.22-5.54,2.38-5.37,32.09.53,68.57-2.35,87.68-34.57Z"/>
          <path class="cls-13" d="M410.37,377.14c-22.44,0-35.16-13.7-39.68-42.31-.28-1.8-.06-4.22,1.08-5.57.61-.72,1.4-1.07,2.31-1,34.21.56,68.46-3.18,86.8-34.1h0c3.51-5.92,10.6-20.23,7.09-34.39-.53-1.63-1.09-3.27-1.68-4.92-.18-.52.04-1.1.52-1.32.47-.22,1.02,0,1.24.51.75,1.7,1.32,3.42,1.75,5.13,9.73,30.05,9.21,56.53-1.53,80.82-9.66,21.82-22.52,31.92-45.9,36.03-4.27.75-8.27,1.13-12,1.13ZM373.88,330.3c-.31,0-.51.11-.7.33-.58.68-.84,2.37-.61,3.84,5.06,31.99,20.79,44.54,49.5,39.49,22.67-3.98,35.14-13.76,44.48-34.88,9.36-21.14,10.77-44.03,4.25-69.6-.48,11.12-5.49,21.04-8.3,25.78h0c-18.85,31.77-53.67,35.62-88.5,35.04-.04,0-.08,0-.11,0ZM461.69,294.71h0,0Z"/>
        </g>
      </g>
      <path class="cls-13" d="M427.52,396.63c.06-3.51-.01-7-.12-10.43-.17-5.34-.43-10.92-4.09-15.57-2.22-2.83-5.57-5.12-9.18-7.07-13.16-7.14-29.73-9.97-45.99-10.18-7.25-.1-14.89-.08-22.56.13-7.67-.21-15.32-.23-22.56-.13-16.27.22-32.83,3.04-45.99,10.18-3.61,1.96-6.95,4.25-9.18,7.07-3.65,4.65-3.92,10.23-4.09,15.57-.11,3.43-.19,6.92-.12,10.43-.04,1.67.02,3.34.2,5.04.85,13.58,4.53,26.92,17.07,36.67,15.84,12.31,40.86,14.93,64.67,14.17,23.81.76,48.83-1.85,64.67-14.17,12.54-9.75,16.22-23.1,17.07-36.67.18-1.69.24-3.37.2-5.04Z"/>
    </g>
  </g>
  <g>
    <g>
      <g>
        <polygon class="cls-13" points="400.75 113.18 373.59 135.91 400.75 113.18 373.59 90.45 400.75 113.18"/>
        <path class="cls-20" d="M373.59,138.91c-.86,0-1.71-.37-2.3-1.07-.47-.56-.7-1.25-.7-1.93,0-.86.37-1.71,1.08-2.3l24.42-20.43-24.42-20.43c-.71-.59-1.07-1.44-1.08-2.3,0-.68.23-1.36.7-1.93,1.06-1.27,2.96-1.44,4.23-.38l27.17,22.73c.68.57,1.08,1.41,1.08,2.3s-.39,1.73-1.08,2.3l-27.17,22.73c-.56.47-1.24.7-1.92.7Z"/>
      </g>
      <g>
        <polygon class="cls-13" points="299.25 113.18 326.41 135.91 299.25 113.18 326.41 90.45 299.25 113.18"/>
        <path class="cls-21" d="M326.41,138.91c-.68,0-1.36-.23-1.92-.7l-27.17-22.73c-.68-.57-1.07-1.41-1.07-2.3s.39-1.73,1.07-2.3l27.17-22.73c1.27-1.06,3.16-.9,4.23.38.47.56.7,1.25.7,1.93,0,.86-.37,1.71-1.07,2.3l-24.42,20.43,24.42,20.43c.71.59,1.07,1.44,1.07,2.3,0,.68-.23,1.36-.7,1.93-.59.71-1.44,1.07-2.3,1.07Z"/>
      </g>
      <path class="cls-7" d="M337.48,138.91c-.48,0-.96-.11-1.41-.36-1.46-.78-2.01-2.6-1.23-4.06l24.35-45.46c.78-1.46,2.6-2.01,4.06-1.23,1.46.78,2.01,2.6,1.23,4.06l-24.35,45.46c-.54,1.01-1.58,1.58-2.65,1.58Z"/>
    </g>
    <polygon class="cls-1" points="558.89 223.33 564.16 236.75 578.4 241.72 564.16 246.68 558.89 260.1 553.63 246.68 539.39 241.72 553.63 236.75 558.89 223.33"/>
    <polygon class="cls-1" points="109.68 403.57 117.58 424.92 138.92 432.82 117.58 440.71 109.68 462.06 101.79 440.71 80.44 432.82 101.79 424.92 109.68 403.57"/>
    <polygon class="cls-1" points="148.68 482.7 152.63 493.37 163.3 497.32 152.63 501.27 148.68 511.94 144.73 501.27 134.06 497.32 144.73 493.37 148.68 482.7"/>
    <g>
      <g>
        <g id="_Répétition_radiale_-5" data-name="&amp;lt;Répétition radiale&amp;gt;">
          <rect class="cls-6" x="136.32" y="281.06" width="7" height="7" transform="translate(-175.26 249.14) rotate(-57.42)"/>
        </g>
        <g id="_Répétition_radiale_-6" data-name="&amp;lt;Répétition radiale&amp;gt;">
          <rect class="cls-6" x="130" y="272.02" width="7" height="7" transform="translate(-56.13 35.16) rotate(-12.42)"/>
        </g>
        <g id="_Répétition_radiale_-7" data-name="&amp;lt;Répétition radiale&amp;gt;">
          <rect class="cls-6" x="131.93" y="261.16" width="7" height="7" transform="translate(-160.51 236.26) rotate(-57.42)"/>
        </g>
        <g id="_Répétition_radiale_-8" data-name="&amp;lt;Répétition radiale&amp;gt;">
          <rect class="cls-6" x="140.98" y="254.84" width="7" height="7" transform="translate(-52.18 37.11) rotate(-12.42)"/>
        </g>
        <g id="_Répétition_radiale_-9" data-name="&amp;lt;Répétition radiale&amp;gt;">
          <rect class="cls-6" x="151.84" y="256.78" width="7" height="7" transform="translate(-147.63 251.01) rotate(-57.42)"/>
        </g>
        <g id="_Répétition_radiale_-10" data-name="&amp;lt;Répétition radiale&amp;gt;">
          <rect class="cls-6" x="158.15" y="265.82" width="7" height="7" transform="translate(-54.14 41.07) rotate(-12.42)"/>
        </g>
        <g id="_Répétition_radiale_-11" data-name="&amp;lt;Répétition radiale&amp;gt;">
          <rect class="cls-6" x="156.22" y="276.68" width="7" height="7" transform="translate(-162.38 263.89) rotate(-57.42)"/>
        </g>
        <g id="_Répétition_radiale_-12" data-name="&amp;lt;Répétition radiale&amp;gt;">
          <rect class="cls-6" x="147.18" y="283" width="7" height="7" transform="translate(-58.09 39.11) rotate(-12.42)"/>
        </g>
      </g>
      <path class="cls-6" d="M146.19,286.54c-7.78-.76-13.49-7.72-12.73-15.5.76-7.78,7.72-13.49,15.5-12.73s13.49,7.72,12.73,15.5c-.76,7.78-7.72,13.49-15.5,12.73ZM148.42,263.81c-4.75-.47-8.99,3.02-9.46,7.77s3.02,8.99,7.77,9.46,8.99-3.02,9.46-7.77-3.02-8.99-7.77-9.46Z"/>
    </g>
    <g>
      <g>
        <g id="_Répétition_radiale_-13" data-name="&amp;lt;Répétition radiale&amp;gt;">
          <rect class="cls-6" x="581.58" y="404.68" width="11.65" height="9" transform="translate(-57.1 720.77) rotate(-60.66)"/>
        </g>
        <g id="_Répétition_radiale_-14" data-name="&amp;lt;Répétition radiale&amp;gt;">
          <rect class="cls-6" x="570.66" y="390.8" width="11.65" height="9" transform="translate(-85.31 170.31) rotate(-15.66)"/>
        </g>
        <g id="_Répétition_radiale_-15" data-name="&amp;lt;Répétition radiale&amp;gt;">
          <rect class="cls-6" x="574.09" y="371.93" width="9" height="11.65" transform="translate(-34.2 697.06) rotate(-60.66)"/>
        </g>
        <g id="_Répétition_radiale_-16" data-name="&amp;lt;Répétition radiale&amp;gt;">
          <rect class="cls-6" x="587.98" y="361.02" width="9" height="11.65" transform="translate(-77.04 173.57) rotate(-15.66)"/>
        </g>
        <g id="_Répétition_radiale_-17" data-name="&amp;lt;Répétition radiale&amp;gt;">
          <rect class="cls-6" x="604.19" y="364.45" width="11.65" height="9" transform="translate(-10.49 719.96) rotate(-60.66)"/>
        </g>
        <g id="_Répétition_radiale_-18" data-name="&amp;lt;Répétition radiale&amp;gt;">
          <rect class="cls-6" x="615.11" y="378.33" width="11.65" height="9" transform="translate(-80.3 181.84) rotate(-15.66)"/>
        </g>
        <g id="_Répétition_radiale_-19" data-name="&amp;lt;Répétition radiale&amp;gt;">
          <rect class="cls-6" x="614.33" y="394.54" width="9" height="11.65" transform="translate(-33.39 743.66) rotate(-60.66)"/>
        </g>
        <g id="_Répétition_radiale_-20" data-name="&amp;lt;Répétition radiale&amp;gt;">
          <rect class="cls-6" x="600.44" y="405.46" width="9" height="11.65" transform="translate(-88.57 178.58) rotate(-15.66)"/>
        </g>
      </g>
      <path class="cls-6" d="M596.4,412.57c-12.96-1.27-22.47-12.85-21.19-25.81,1.27-12.96,12.85-22.47,25.81-21.19s22.47,12.85,21.19,25.81c-1.27,12.96-12.85,22.46-25.81,21.19ZM600.12,374.73c-7.91-.78-14.97,5.02-15.74,12.93-.78,7.91,5.02,14.97,12.93,15.74s14.97-5.02,15.75-12.93-5.02-14.97-12.93-15.75Z"/>
    </g>
  </g>
</svg>