<?xml version="1.0" encoding="UTF-8"?>
<svg id="Calque_1" data-name="Calque 1" xmlns="http://www.w3.org/2000/svg" viewBox="0 0 1080 1080">
  <defs>
    <style>
      .cls-1 {
        fill: #69637f;
      }

      .cls-2 {
        fill: #8fffff;
      }

      .cls-3 {
        fill: #777ba1;
      }

      .cls-4 {
        fill: #8381a1;
      }

      .cls-5 {
        fill: #15002f;
      }

      .cls-6 {
        fill: #dbffff;
      }
    </style>
  </defs>
  <g>
    <rect class="cls-3" x="197.42" y="269.8" width="612.4" height="386.98"/>
    <rect class="cls-2" x="197.42" y="271.93" width="610.31" height="384.85"/>
    <rect class="cls-1" x="221.55" y="291.74" width="564.13" height="343.09"/>
    <rect class="cls-5" x="228.48" y="297.23" width="550.28" height="332.12"/>
  </g>
  <g>
    <polygon class="cls-1" points="1006.88 798.93 394.46 798.93 201.18 670.72 197.42 668.24 809.82 668.24 1006.88 792.97 1006.88 798.93"/>
    <rect class="cls-1" x="197.42" y="653.98" width="612.4" height="14.26"/>
    <polygon class="cls-2" points="1006.88 792.97 394.46 792.97 201.18 659.37 197.42 656.78 809.82 656.78 813.58 659.37 1006.88 792.97"/>
    <g>
      <g>
        <g>
          <polygon class="cls-4" points="303.79 676.79 314.78 684.8 290.76 684.8 279.76 676.79 303.79 676.79"/>
          <path class="cls-3" d="M314.78,685.83h-24.03c-.22,0-.43-.07-.61-.2l-11-8.01c-.36-.26-.51-.73-.37-1.15.14-.43.53-.71.98-.71h24.03c.22,0,.43.07.61.2l11,8.01c.36.26.51.73.37,1.15-.14.42-.53.71-.98.71ZM291.1,683.77h20.52l-8.16-5.94h-20.52l8.16,5.94Z"/>
        </g>
        <g>
          <polygon class="cls-4" points="350.2 676.79 361.19 684.8 338.44 684.8 327.44 676.79 350.2 676.79"/>
          <path class="cls-3" d="M361.19,685.83h-22.76c-.22,0-.43-.07-.61-.2l-11-8.01c-.36-.26-.51-.73-.37-1.15.14-.43.53-.71.98-.71h22.76c.22,0,.43.07.61.2l10.99,8.01c.36.26.51.73.37,1.15-.14.42-.53.71-.98.71ZM338.78,683.77h19.25l-8.16-5.94h-19.25l8.16,5.94Z"/>
        </g>
        <g>
          <polygon class="cls-4" points="390.9 676.79 401.87 684.8 378.93 684.8 367.93 676.79 390.9 676.79"/>
          <path class="cls-3" d="M401.87,685.83h-22.94c-.22,0-.43-.07-.61-.2l-10.99-8.01c-.36-.26-.51-.73-.37-1.15.14-.42.53-.71.98-.71h22.97c.22,0,.43.07.61.2l10.97,8.01c.36.26.51.73.37,1.15-.14.42-.53.71-.98.71ZM379.27,683.77h19.44l-8.14-5.94h-19.46l8.16,5.94Z"/>
        </g>
        <g>
          <polygon class="cls-4" points="428.19 676.79 439.19 684.8 422.59 684.8 411.62 676.79 428.19 676.79"/>
          <path class="cls-3" d="M439.19,685.83h-16.6c-.22,0-.43-.07-.61-.2l-10.97-8.01c-.36-.26-.51-.73-.37-1.15.14-.42.53-.71.98-.71h16.57c.22,0,.43.07.61.2l10.99,8.01c.36.26.51.73.37,1.15-.14.42-.53.71-.98.71ZM422.93,683.77h13.09l-8.16-5.94h-13.07l8.14,5.94Z"/>
        </g>
        <g>
          <polygon class="cls-4" points="470.82 676.79 481.82 684.8 459.88 684.8 448.89 676.79 470.82 676.79"/>
          <path class="cls-3" d="M481.82,685.83h-21.94c-.22,0-.43-.07-.61-.2l-11-8.01c-.36-.26-.51-.73-.37-1.15.14-.43.53-.71.98-.71h21.94c.22,0,.43.07.61.2l11,8.01c.36.26.51.73.37,1.15-.14.42-.53.71-.98.71ZM460.22,683.77h18.43l-8.16-5.94h-18.43l8.16,5.94Z"/>
        </g>
        <g>
          <polygon class="cls-4" points="512.85 676.79 523.84 684.8 500.37 684.8 489.38 676.79 512.85 676.79"/>
          <path class="cls-3" d="M523.84,685.83h-23.47c-.22,0-.43-.07-.61-.2l-10.99-8.01c-.36-.26-.51-.73-.37-1.15.14-.42.53-.71.98-.71h23.47c.22,0,.43.07.61.2l10.99,8.01c.36.26.51.73.37,1.15-.14.42-.53.71-.98.71ZM500.71,683.77h19.96l-8.16-5.94h-19.96l8.16,5.94Z"/>
        </g>
        <g>
          <polygon class="cls-4" points="549.66 676.79 560.66 684.8 540.44 684.8 529.45 676.79 549.66 676.79"/>
          <path class="cls-3" d="M560.66,685.83h-20.22c-.22,0-.43-.07-.61-.2l-11-8.01c-.36-.26-.51-.73-.37-1.15.14-.43.53-.71.98-.71h20.22c.22,0,.43.07.61.2l10.99,8.01c.36.26.51.73.37,1.15-.14.42-.53.71-.98.71ZM540.78,683.77h16.71l-8.16-5.94h-16.71l8.16,5.94Z"/>
        </g>
        <g>
          <polygon class="cls-4" points="593.56 676.79 604.56 684.8 581.56 684.8 570.57 676.79 593.56 676.79"/>
          <path class="cls-3" d="M604.56,685.83h-22.99c-.22,0-.43-.07-.61-.2l-11-8.01c-.36-.26-.51-.73-.37-1.15.14-.43.53-.71.98-.71h23c.22,0,.43.07.61.2l10.99,8.01c.36.26.51.73.37,1.15-.14.42-.53.71-.98.71ZM581.9,683.77h19.49l-8.16-5.94h-19.49l8.16,5.94Z"/>
        </g>
        <g>
          <polygon class="cls-4" points="643.07 676.79 654.06 684.8 625.46 684.8 614.47 676.79 643.07 676.79"/>
          <path class="cls-3" d="M654.06,685.83h-28.6c-.22,0-.43-.07-.61-.2l-11-8.01c-.36-.26-.51-.73-.37-1.15.14-.43.53-.71.98-.71h28.6c.22,0,.43.07.61.2l11,8.01c.36.26.51.73.37,1.15-.14.42-.53.71-.98.71ZM625.8,683.77h25.09l-8.16-5.94h-25.09l8.16,5.94Z"/>
        </g>
        <g>
          <polygon class="cls-4" points="690.9 676.79 701.9 684.8 674.97 684.8 663.97 676.79 690.9 676.79"/>
          <path class="cls-3" d="M701.9,685.83h-26.93c-.22,0-.43-.07-.61-.2l-10.99-8.01c-.36-.26-.51-.73-.37-1.15.14-.42.53-.71.98-.71h26.93c.22,0,.43.07.61.2l10.99,8.01c.36.26.51.73.37,1.15-.14.42-.53.71-.98.71ZM675.3,683.77h23.43l-8.16-5.94h-23.43l8.16,5.94Z"/>
        </g>
        <g>
          <polygon class="cls-4" points="743.53 676.79 754.52 684.8 722.8 684.8 711.81 676.79 743.53 676.79"/>
          <path class="cls-3" d="M754.52,685.83h-31.72c-.22,0-.43-.07-.61-.2l-11-8.01c-.36-.26-.51-.73-.37-1.15.14-.43.53-.71.98-.71h31.72c.22,0,.43.07.61.2l11,8.01c.36.26.51.73.37,1.15-.14.42-.53.71-.98.71ZM723.14,683.77h28.21l-8.16-5.94h-28.21l8.16,5.94Z"/>
        </g>
        <g>
          <polygon class="cls-4" points="801.3 684.8 775.43 684.8 764.43 676.79 790.31 676.79 801.3 684.8"/>
          <path class="cls-3" d="M801.3,685.83h-25.88c-.22,0-.43-.07-.61-.2l-10.99-8.01c-.36-.26-.51-.73-.37-1.15.14-.42.53-.71.98-.71h25.87c.22,0,.43.07.61.2l11,8.01c.36.26.51.73.37,1.15-.14.42-.53.71-.98.71ZM775.76,683.77h22.37l-8.16-5.94h-22.37l8.16,5.94Z"/>
        </g>
      </g>
      <g>
        <g>
          <polygon class="cls-4" points="323.61 691.25 334.61 699.26 310.58 699.26 299.61 691.25 323.61 691.25"/>
          <path class="cls-3" d="M334.61,700.29h-24.02c-.22,0-.43-.07-.61-.2l-10.97-8.01c-.36-.26-.51-.73-.37-1.15.14-.42.53-.71.98-.71h24c.22,0,.43.07.61.2l10.99,8.01c.36.26.51.73.37,1.15-.14.42-.53.71-.98.71ZM310.92,698.22h20.52l-8.16-5.94h-20.5l8.14,5.94Z"/>
        </g>
        <g>
          <polygon class="cls-4" points="370.02 691.25 381.02 699.26 358.26 699.26 347.27 691.25 370.02 691.25"/>
          <path class="cls-3" d="M381.02,700.29h-22.76c-.22,0-.43-.07-.61-.2l-11-8.01c-.36-.26-.51-.73-.37-1.15.14-.43.53-.71.98-.71h22.76c.22,0,.43.07.61.2l11,8.01c.36.26.51.73.37,1.15-.14.42-.53.71-.98.71ZM358.6,698.22h19.25l-8.16-5.94h-19.25l8.16,5.94Z"/>
        </g>
        <g>
          <polygon class="cls-4" points="410.72 691.25 421.69 699.26 398.75 699.26 387.76 691.25 410.72 691.25"/>
          <path class="cls-3" d="M421.69,700.29h-22.94c-.22,0-.43-.07-.61-.2l-11-8.01c-.36-.26-.51-.73-.37-1.15.14-.43.53-.71.98-.71h22.97c.22,0,.43.07.61.2l10.97,8.01c.36.26.51.73.37,1.15-.14.42-.53.71-.98.71ZM399.09,698.22h19.44l-8.14-5.94h-19.46l8.16,5.94Z"/>
        </g>
        <g>
          <polygon class="cls-4" points="448.02 691.25 459.01 699.26 442.41 699.26 431.44 691.25 448.02 691.25"/>
          <path class="cls-3" d="M459.01,700.29h-16.6c-.22,0-.43-.07-.61-.2l-10.97-8.01c-.36-.26-.51-.73-.37-1.15.14-.42.53-.71.98-.71h16.57c.22,0,.43.07.61.2l10.99,8.01c.36.26.51.73.37,1.15-.14.42-.53.71-.98.71ZM442.75,698.22h13.09l-8.16-5.94h-13.07l8.14,5.94Z"/>
        </g>
        <g>
          <polygon class="cls-4" points="490.65 691.25 501.64 699.26 479.7 699.26 468.71 691.25 490.65 691.25"/>
          <path class="cls-3" d="M501.64,700.29h-21.94c-.22,0-.43-.07-.61-.2l-11-8.01c-.36-.26-.51-.73-.37-1.15.14-.43.53-.71.98-.71h21.94c.22,0,.43.07.61.2l11,8.01c.36.26.51.73.37,1.15-.14.42-.53.71-.98.71ZM480.04,698.22h18.43l-8.16-5.94h-18.43l8.16,5.94Z"/>
        </g>
        <g>
          <polygon class="cls-4" points="532.67 691.25 543.66 699.26 520.19 699.26 509.2 691.25 532.67 691.25"/>
          <path class="cls-3" d="M543.66,700.29h-23.47c-.22,0-.43-.07-.61-.2l-10.99-8.01c-.36-.26-.51-.73-.37-1.15.14-.42.53-.71.98-.71h23.47c.22,0,.43.07.61.2l10.99,8.01c.36.26.51.73.37,1.15-.14.42-.53.71-.98.71ZM520.53,698.22h19.96l-8.16-5.94h-19.96l8.16,5.94Z"/>
        </g>
        <g>
          <polygon class="cls-4" points="569.49 691.25 580.48 699.26 560.26 699.26 549.27 691.25 569.49 691.25"/>
          <path class="cls-3" d="M580.48,700.29h-20.22c-.22,0-.43-.07-.61-.2l-11-8.01c-.36-.26-.51-.73-.37-1.15.14-.43.53-.71.98-.71h20.22c.22,0,.43.07.61.2l10.99,8.01c.36.26.51.73.37,1.15-.14.42-.53.71-.98.71ZM560.6,698.22h16.71l-8.16-5.94h-16.71l8.16,5.94Z"/>
        </g>
        <g>
          <polygon class="cls-4" points="613.39 691.25 624.38 699.26 601.39 699.26 590.39 691.25 613.39 691.25"/>
          <path class="cls-3" d="M624.38,700.29h-22.99c-.22,0-.43-.07-.61-.2l-11-8.01c-.36-.26-.51-.73-.37-1.15.14-.43.53-.71.98-.71h23c.22,0,.43.07.61.2l10.99,8.01c.36.26.51.73.37,1.15-.14.42-.53.71-.98.71ZM601.72,698.22h19.49l-8.16-5.94h-19.49l8.16,5.94Z"/>
        </g>
        <g>
          <polygon class="cls-4" points="662.89 691.25 673.88 699.26 645.29 699.26 634.29 691.25 662.89 691.25"/>
          <path class="cls-3" d="M673.88,700.29h-28.6c-.22,0-.43-.07-.61-.2l-11-8.01c-.36-.26-.51-.73-.37-1.15.14-.43.53-.71.98-.71h28.6c.22,0,.43.07.61.2l11,8.01c.36.26.51.73.37,1.15-.14.42-.53.71-.98.71ZM645.62,698.22h25.09l-8.16-5.94h-25.09l8.16,5.94Z"/>
        </g>
        <g>
          <polygon class="cls-4" points="710.73 691.25 721.72 699.26 694.79 699.26 683.79 691.25 710.73 691.25"/>
          <path class="cls-3" d="M721.72,700.29h-26.93c-.22,0-.43-.07-.61-.2l-10.99-8.01c-.36-.26-.51-.73-.37-1.15.14-.42.53-.71.98-.71h26.93c.22,0,.43.07.61.2l10.99,8.01c.36.26.51.73.37,1.15-.14.42-.53.71-.98.71ZM695.13,698.22h23.43l-8.16-5.94h-23.43l8.16,5.94Z"/>
        </g>
        <g>
          <polygon class="cls-4" points="763.35 691.25 774.34 699.26 742.63 699.26 731.63 691.25 763.35 691.25"/>
          <path class="cls-3" d="M774.34,700.29h-31.72c-.22,0-.43-.07-.61-.2l-11-8.01c-.36-.26-.51-.73-.37-1.15.14-.43.53-.71.98-.71h31.72c.22,0,.43.07.61.2l11,8.01c.36.26.51.73.37,1.15-.14.42-.53.71-.98.71ZM742.96,698.22h28.21l-8.16-5.94h-28.21l8.16,5.94Z"/>
        </g>
        <g>
          <polygon class="cls-4" points="821.12 699.26 795.25 699.26 784.25 691.25 810.13 691.25 821.12 699.26"/>
          <path class="cls-3" d="M821.12,700.29h-25.88c-.22,0-.43-.07-.61-.2l-10.99-8.01c-.36-.26-.51-.73-.37-1.15.14-.42.53-.71.98-.71h25.87c.22,0,.43.07.61.2l11,8.01c.36.26.51.73.37,1.15-.14.42-.53.71-.98.71ZM795.58,698.22h22.37l-8.16-5.94h-22.37l8.16,5.94Z"/>
        </g>
      </g>
      <g>
        <g>
          <polygon class="cls-4" points="343.41 705.68 354.43 713.71 330.4 713.71 319.38 705.68 343.41 705.68"/>
          <path class="cls-3" d="M354.43,714.74h-24.02c-.22,0-.43-.07-.61-.2l-11.02-8.03c-.36-.26-.51-.73-.37-1.15.14-.42.53-.71.98-.71h24.03c.22,0,.43.07.61.2l11.02,8.03c.36.26.51.73.37,1.15-.14.42-.53.71-.98.71ZM330.74,712.68h20.52l-8.19-5.97h-20.52l8.19,5.97Z"/>
        </g>
        <g>
          <polygon class="cls-4" points="389.82 705.68 400.84 713.71 378.08 713.71 367.06 705.68 389.82 705.68"/>
          <path class="cls-3" d="M400.84,714.74h-22.76c-.22,0-.43-.07-.61-.2l-11.02-8.03c-.36-.26-.51-.73-.37-1.15.14-.42.53-.71.98-.71h22.76c.22,0,.43.07.61.2l11.02,8.03c.36.26.51.73.37,1.15-.14.42-.53.71-.98.71ZM378.42,712.68h19.25l-8.19-5.97h-19.25l8.19,5.97Z"/>
        </g>
        <g>
          <polygon class="cls-4" points="430.49 705.68 441.51 713.71 418.57 713.71 407.55 705.68 430.49 705.68"/>
          <path class="cls-3" d="M441.51,714.74h-22.94c-.22,0-.43-.07-.61-.2l-11.02-8.03c-.36-.26-.51-.73-.37-1.15.14-.42.53-.71.98-.71h22.94c.22,0,.43.07.61.2l11.02,8.03c.36.26.51.73.37,1.15-.14.42-.53.71-.98.71ZM418.91,712.68h19.44l-8.19-5.97h-19.44l8.19,5.97Z"/>
        </g>
        <g>
          <polygon class="cls-4" points="467.81 705.68 478.83 713.71 462.26 713.71 451.24 705.68 467.81 705.68"/>
          <path class="cls-3" d="M478.83,714.74h-16.57c-.22,0-.43-.07-.61-.2l-11.02-8.03c-.36-.26-.51-.73-.37-1.15.14-.42.53-.71.98-.71h16.57c.22,0,.43.07.61.2l11.02,8.03c.36.26.51.73.37,1.15-.14.42-.53.71-.98.71ZM462.6,712.68h13.07l-8.19-5.97h-13.07l8.19,5.97Z"/>
        </g>
        <g>
          <polygon class="cls-4" points="510.44 705.68 521.46 713.71 499.53 713.71 488.51 705.68 510.44 705.68"/>
          <path class="cls-3" d="M521.46,714.74h-21.93c-.22,0-.43-.07-.61-.2l-11.02-8.03c-.36-.26-.51-.73-.37-1.15.14-.42.53-.71.98-.71h21.94c.22,0,.43.07.61.2l11.02,8.03c.36.26.51.73.37,1.15-.14.42-.53.71-.98.71ZM499.86,712.68h18.43l-8.19-5.97h-18.43l8.19,5.97Z"/>
        </g>
        <g>
          <polygon class="cls-4" points="552.47 705.68 563.49 713.71 540.02 713.71 529 705.68 552.47 705.68"/>
          <path class="cls-3" d="M563.49,714.74h-23.47c-.22,0-.43-.07-.61-.2l-11.02-8.03c-.36-.26-.51-.73-.37-1.15.14-.42.53-.71.98-.71h23.47c.22,0,.43.07.61.2l11.02,8.03c.36.26.51.73.37,1.15-.14.42-.53.71-.98.71ZM540.35,712.68h19.97l-8.19-5.97h-19.97l8.19,5.97Z"/>
        </g>
        <g>
          <polygon class="cls-4" points="589.28 705.68 600.3 713.71 580.08 713.71 569.06 705.68 589.28 705.68"/>
          <path class="cls-3" d="M600.3,714.74h-20.22c-.22,0-.43-.07-.61-.2l-11.02-8.03c-.36-.26-.51-.73-.37-1.15.14-.42.53-.71.98-.71h20.22c.22,0,.43.07.61.2l11.02,8.03c.36.26.51.73.37,1.15-.14.42-.53.71-.98.71ZM580.42,712.68h16.71l-8.19-5.97h-16.71l8.19,5.97Z"/>
        </g>
        <g>
          <polygon class="cls-4" points="633.18 705.68 644.2 713.71 621.21 713.71 610.19 705.68 633.18 705.68"/>
          <path class="cls-3" d="M644.2,714.74h-22.99c-.22,0-.43-.07-.61-.2l-11.02-8.03c-.36-.26-.51-.73-.37-1.15.14-.42.53-.71.98-.71h22.99c.22,0,.43.07.61.2l11.02,8.03c.36.26.51.73.37,1.15-.14.42-.53.71-.98.71ZM621.55,712.68h19.49l-8.19-5.97h-19.49l8.19,5.97Z"/>
        </g>
        <g>
          <polygon class="cls-4" points="682.68 705.68 693.71 713.71 665.11 713.71 654.09 705.68 682.68 705.68"/>
          <path class="cls-3" d="M693.71,714.74h-28.6c-.22,0-.43-.07-.61-.2l-11.02-8.03c-.36-.26-.51-.73-.37-1.15.14-.42.53-.71.98-.71h28.6c.22,0,.43.07.61.2l11.02,8.03c.36.26.51.73.37,1.15-.14.42-.53.71-.98.71ZM665.44,712.68h25.09l-8.19-5.97h-25.09l8.19,5.97Z"/>
        </g>
        <g>
          <polygon class="cls-4" points="730.52 705.68 741.54 713.71 714.61 713.71 703.59 705.68 730.52 705.68"/>
          <path class="cls-3" d="M741.54,714.74h-26.93c-.22,0-.43-.07-.61-.2l-11.02-8.03c-.36-.26-.51-.73-.37-1.15.14-.42.53-.71.98-.71h26.93c.22,0,.43.07.61.2l11.02,8.03c.36.26.51.73.37,1.15-.14.42-.53.71-.98.71ZM714.95,712.68h23.43l-8.19-5.97h-23.43l8.19,5.97Z"/>
        </g>
        <g>
          <polygon class="cls-4" points="783.14 705.68 794.16 713.71 762.45 713.71 751.43 705.68 783.14 705.68"/>
          <path class="cls-3" d="M794.16,714.74h-31.72c-.22,0-.43-.07-.61-.2l-11.02-8.03c-.36-.26-.51-.73-.37-1.15.14-.42.53-.71.98-.71h31.72c.22,0,.43.07.61.2l11.02,8.03c.36.26.51.73.37,1.15-.14.42-.53.71-.98.71ZM762.79,712.68h28.21l-8.19-5.97h-28.21l8.19,5.97Z"/>
        </g>
        <g>
          <polygon class="cls-4" points="840.94 713.71 815.07 713.71 804.05 705.68 829.92 705.68 840.94 713.71"/>
          <path class="cls-3" d="M840.94,714.74h-25.88c-.22,0-.43-.07-.61-.2l-11.02-8.03c-.36-.26-.51-.73-.37-1.15.14-.42.53-.71.98-.71h25.87c.22,0,.43.07.61.2l11.02,8.03c.36.26.51.73.37,1.15-.14.42-.53.71-.98.71ZM815.41,712.68h22.37l-8.19-5.97h-22.37l8.19,5.97Z"/>
        </g>
      </g>
      <g>
        <g>
          <polygon class="cls-4" points="363.23 720.13 374.25 728.17 350.23 728.17 339.23 720.13 363.23 720.13"/>
          <path class="cls-3" d="M374.25,729.2h-24.02c-.22,0-.43-.07-.61-.2l-11-8.03c-.36-.26-.51-.73-.37-1.15.14-.43.53-.71.98-.71h24c.22,0,.43.07.61.2l11.02,8.03c.36.26.51.73.37,1.15-.14.42-.53.71-.98.71ZM350.56,727.14h20.52l-8.19-5.97h-20.5l8.17,5.97Z"/>
        </g>
        <g>
          <polygon class="cls-4" points="409.64 720.13 420.66 728.17 397.91 728.17 386.88 720.13 409.64 720.13"/>
          <path class="cls-3" d="M420.66,729.2h-22.76c-.22,0-.43-.07-.61-.2l-11.02-8.03c-.36-.26-.51-.73-.37-1.15.14-.42.53-.71.98-.71h22.76c.22,0,.43.07.61.2l11.02,8.03c.36.26.51.73.37,1.15-.14.42-.53.71-.98.71ZM398.24,727.14h19.25l-8.19-5.97h-19.25l8.19,5.97Z"/>
        </g>
        <g>
          <polygon class="cls-4" points="450.32 720.13 461.34 728.17 438.4 728.17 427.37 720.13 450.32 720.13"/>
          <path class="cls-3" d="M461.34,729.2h-22.94c-.22,0-.43-.07-.61-.2l-11.02-8.03c-.36-.26-.51-.73-.37-1.15.14-.42.53-.71.98-.71h22.94c.22,0,.43.07.61.2l11.02,8.03c.36.26.51.73.37,1.15-.14.42-.53.71-.98.71ZM438.73,727.14h19.44l-8.19-5.97h-19.44l8.19,5.97Z"/>
        </g>
        <g>
          <polygon class="cls-4" points="487.63 720.13 498.65 728.17 482.08 728.17 471.06 720.13 487.63 720.13"/>
          <path class="cls-3" d="M498.65,729.2h-16.57c-.22,0-.43-.07-.61-.2l-11.02-8.03c-.36-.26-.51-.73-.37-1.15.14-.42.53-.71.98-.71h16.57c.22,0,.43.07.61.2l11.02,8.03c.36.26.51.73.37,1.15-.14.42-.53.71-.98.71ZM482.42,727.14h13.07l-8.19-5.97h-13.07l8.19,5.97Z"/>
        </g>
        <g>
          <polygon class="cls-4" points="530.26 720.13 541.29 728.17 519.35 728.17 508.33 720.13 530.26 720.13"/>
          <path class="cls-3" d="M541.28,729.2h-21.93c-.22,0-.43-.07-.61-.2l-11.02-8.03c-.36-.26-.51-.73-.37-1.15.14-.42.53-.71.98-.71h21.94c.22,0,.43.07.61.2l11.02,8.03c.36.26.51.73.37,1.15-.14.42-.53.71-.98.71ZM519.69,727.14h18.43l-8.19-5.97h-18.43l8.19,5.97Z"/>
        </g>
        <g>
          <polygon class="cls-4" points="572.29 720.13 583.31 728.17 559.84 728.17 548.82 720.13 572.29 720.13"/>
          <path class="cls-3" d="M583.31,729.2h-23.47c-.22,0-.43-.07-.61-.2l-11.02-8.03c-.36-.26-.51-.73-.37-1.15.14-.42.53-.71.98-.71h23.47c.22,0,.43.07.61.2l11.02,8.03c.36.26.51.73.37,1.15-.14.42-.53.71-.98.71ZM560.18,727.14h19.97l-8.19-5.97h-19.97l8.19,5.97Z"/>
        </g>
        <g>
          <polygon class="cls-4" points="609.1 720.13 620.13 728.17 599.91 728.17 588.89 720.13 609.1 720.13"/>
          <path class="cls-3" d="M620.13,729.2h-20.22c-.22,0-.43-.07-.61-.2l-11.02-8.03c-.36-.26-.51-.73-.37-1.15.14-.42.53-.71.98-.71h20.22c.22,0,.43.07.61.2l11.02,8.03c.36.26.51.73.37,1.15-.14.42-.53.71-.98.71ZM600.24,727.14h16.71l-8.19-5.97h-16.71l8.19,5.97Z"/>
        </g>
        <g>
          <polygon class="cls-4" points="653 720.13 664.02 728.17 641.03 728.17 630.01 720.13 653 720.13"/>
          <path class="cls-3" d="M664.02,729.2h-22.99c-.22,0-.43-.07-.61-.2l-11.02-8.03c-.36-.26-.51-.73-.37-1.15.14-.42.53-.71.98-.71h22.99c.22,0,.43.07.61.2l11.02,8.03c.36.26.51.73.37,1.15-.14.42-.53.71-.98.71ZM641.37,727.14h19.49l-8.19-5.97h-19.49l8.19,5.97Z"/>
        </g>
        <g>
          <polygon class="cls-4" points="702.51 720.13 713.53 728.17 684.93 728.17 673.91 720.13 702.51 720.13"/>
          <path class="cls-3" d="M713.53,729.2h-28.6c-.22,0-.43-.07-.61-.2l-11.02-8.03c-.36-.26-.51-.73-.37-1.15.14-.42.53-.71.98-.71h28.6c.22,0,.43.07.61.2l11.02,8.03c.36.26.51.73.37,1.15-.14.42-.53.71-.98.71ZM685.27,727.14h25.09l-8.19-5.97h-25.09l8.19,5.97Z"/>
        </g>
        <g>
          <polygon class="cls-4" points="750.34 720.13 761.37 728.17 734.43 728.17 723.41 720.13 750.34 720.13"/>
          <path class="cls-3" d="M761.37,729.2h-26.93c-.22,0-.43-.07-.61-.2l-11.02-8.03c-.36-.26-.51-.73-.37-1.15.14-.42.53-.71.98-.71h26.93c.22,0,.43.07.61.2l11.02,8.03c.36.26.51.73.37,1.15-.14.42-.53.71-.98.71ZM734.77,727.14h23.43l-8.19-5.97h-23.43l8.19,5.97Z"/>
        </g>
        <g>
          <polygon class="cls-4" points="802.97 720.13 813.99 728.17 782.27 728.17 771.25 720.13 802.97 720.13"/>
          <path class="cls-3" d="M813.99,729.2h-31.72c-.22,0-.43-.07-.61-.2l-11.02-8.03c-.36-.26-.51-.73-.37-1.15.14-.42.53-.71.98-.71h31.72c.22,0,.43.07.61.2l11.02,8.03c.36.26.51.73.37,1.15-.14.42-.53.71-.98.71ZM782.61,727.14h28.21l-8.19-5.97h-28.21l8.19,5.97Z"/>
        </g>
        <g>
          <polygon class="cls-4" points="860.77 728.17 834.89 728.17 823.87 720.13 849.75 720.13 860.77 728.17"/>
          <path class="cls-3" d="M860.77,729.2h-25.88c-.22,0-.43-.07-.61-.2l-11.02-8.03c-.36-.26-.51-.73-.37-1.15.14-.42.53-.71.98-.71h25.87c.22,0,.43.07.61.2l11.02,8.03c.36.26.51.73.37,1.15-.14.42-.53.71-.98.71ZM835.23,727.14h22.37l-8.19-5.97h-22.37l8.19,5.97Z"/>
        </g>
      </g>
      <g>
        <polygon class="cls-4" points="663.09 729.15 482.02 729.15 478.9 727.48 468.06 719.16 649.87 719.16 663.09 729.15"/>
        <path class="cls-3" d="M663.09,730.18h-181.07c-.17,0-.34-.04-.49-.12l-3.12-1.66-10.98-8.42c-.35-.27-.49-.73-.35-1.15.14-.42.54-.7.98-.7h181.81c.22,0,.44.07.62.21l13.21,9.99c.35.27.5.73.35,1.15-.14.42-.53.7-.98.7ZM482.27,728.11h177.74l-10.48-7.93h-178.43l8.43,6.47,2.75,1.45Z"/>
      </g>
      <g>
        <polygon class="cls-4" points="771.06 771.54 539.62 771.54 488.96 734.59 720.4 734.59 771.06 771.54"/>
        <path class="cls-3" d="M771.06,772.57h-231.44c-.22,0-.43-.07-.61-.2l-50.66-36.95c-.36-.26-.51-.73-.37-1.15.14-.42.53-.71.98-.71h231.44c.22,0,.43.07.61.2l50.66,36.95c.36.26.51.73.37,1.15-.14.42-.53.71-.98.71ZM539.96,770.51h227.94l-47.83-34.89h-227.94l47.83,34.89Z"/>
      </g>
    </g>
    <g>
      <g>
        <polygon class="cls-1" points="303.79 676.79 314.78 684.8 290.76 684.8 279.76 676.79 303.79 676.79"/>
        <polygon class="cls-1" points="350.2 676.79 361.19 684.8 338.44 684.8 327.44 676.79 350.2 676.79"/>
        <polygon class="cls-1" points="390.9 676.79 401.87 684.8 378.93 684.8 367.93 676.79 390.9 676.79"/>
        <polygon class="cls-1" points="428.19 676.79 439.19 684.8 422.59 684.8 411.62 676.79 428.19 676.79"/>
        <polygon class="cls-1" points="470.82 676.79 481.82 684.8 459.88 684.8 448.89 676.79 470.82 676.79"/>
        <polygon class="cls-1" points="512.85 676.79 523.84 684.8 500.37 684.8 489.38 676.79 512.85 676.79"/>
        <polygon class="cls-1" points="549.66 676.79 560.66 684.8 540.44 684.8 529.45 676.79 549.66 676.79"/>
        <polygon class="cls-1" points="593.56 676.79 604.56 684.8 581.56 684.8 570.57 676.79 593.56 676.79"/>
        <polygon class="cls-1" points="643.07 676.79 654.06 684.8 625.46 684.8 614.47 676.79 643.07 676.79"/>
        <polygon class="cls-1" points="690.9 676.79 701.9 684.8 674.97 684.8 663.97 676.79 690.9 676.79"/>
        <polygon class="cls-1" points="743.53 676.79 754.52 684.8 722.8 684.8 711.81 676.79 743.53 676.79"/>
        <polygon class="cls-1" points="801.3 684.8 775.43 684.8 764.43 676.79 790.31 676.79 801.3 684.8"/>
      </g>
      <g>
        <polygon class="cls-1" points="323.61 691.25 334.61 699.26 310.58 699.26 299.61 691.25 323.61 691.25"/>
        <polygon class="cls-1" points="370.02 691.25 381.02 699.26 358.26 699.26 347.27 691.25 370.02 691.25"/>
        <polygon class="cls-1" points="410.72 691.25 421.69 699.26 398.75 699.26 387.76 691.25 410.72 691.25"/>
        <polygon class="cls-1" points="448.02 691.25 459.01 699.26 442.41 699.26 431.44 691.25 448.02 691.25"/>
        <polygon class="cls-1" points="490.65 691.25 501.64 699.26 479.7 699.26 468.71 691.25 490.65 691.25"/>
        <polygon class="cls-1" points="532.67 691.25 543.66 699.26 520.19 699.26 509.2 691.25 532.67 691.25"/>
        <polygon class="cls-1" points="569.49 691.25 580.48 699.26 560.26 699.26 549.27 691.25 569.49 691.25"/>
        <polygon class="cls-1" points="613.39 691.25 624.38 699.26 601.39 699.26 590.39 691.25 613.39 691.25"/>
        <polygon class="cls-1" points="662.89 691.25 673.88 699.26 645.29 699.26 634.29 691.25 662.89 691.25"/>
        <polygon class="cls-1" points="710.73 691.25 721.72 699.26 694.79 699.26 683.79 691.25 710.73 691.25"/>
        <polygon class="cls-1" points="763.35 691.25 774.34 699.26 742.63 699.26 731.63 691.25 763.35 691.25"/>
        <polygon class="cls-1" points="821.12 699.26 795.25 699.26 784.25 691.25 810.13 691.25 821.12 699.26"/>
      </g>
      <g>
        <polygon class="cls-1" points="343.41 705.68 354.43 713.71 330.4 713.71 319.38 705.68 343.41 705.68"/>
        <polygon class="cls-1" points="389.82 705.68 400.84 713.71 378.08 713.71 367.06 705.68 389.82 705.68"/>
        <polygon class="cls-1" points="430.49 705.68 441.51 713.71 418.57 713.71 407.55 705.68 430.49 705.68"/>
        <polygon class="cls-1" points="467.81 705.68 478.83 713.71 462.26 713.71 451.24 705.68 467.81 705.68"/>
        <polygon class="cls-1" points="510.44 705.68 521.46 713.71 499.53 713.71 488.51 705.68 510.44 705.68"/>
        <polygon class="cls-1" points="552.47 705.68 563.49 713.71 540.02 713.71 529 705.68 552.47 705.68"/>
        <polygon class="cls-1" points="589.28 705.68 600.3 713.71 580.08 713.71 569.06 705.68 589.28 705.68"/>
        <polygon class="cls-1" points="633.18 705.68 644.2 713.71 621.21 713.71 610.19 705.68 633.18 705.68"/>
        <polygon class="cls-1" points="682.68 705.68 693.71 713.71 665.11 713.71 654.09 705.68 682.68 705.68"/>
        <polygon class="cls-1" points="730.52 705.68 741.54 713.71 714.61 713.71 703.59 705.68 730.52 705.68"/>
        <polygon class="cls-1" points="783.14 705.68 794.16 713.71 762.45 713.71 751.43 705.68 783.14 705.68"/>
        <polygon class="cls-1" points="840.94 713.71 815.07 713.71 804.05 705.68 829.92 705.68 840.94 713.71"/>
      </g>
      <g>
        <polygon class="cls-1" points="363.23 720.13 374.25 728.17 350.23 728.17 339.23 720.13 363.23 720.13"/>
        <polygon class="cls-1" points="409.64 720.13 420.66 728.17 397.91 728.17 386.88 720.13 409.64 720.13"/>
        <polygon class="cls-1" points="450.32 720.13 461.34 728.17 438.4 728.17 427.37 720.13 450.32 720.13"/>
        <polygon class="cls-1" points="487.63 720.13 498.65 728.17 482.08 728.17 471.06 720.13 487.63 720.13"/>
        <polygon class="cls-1" points="530.26 720.13 541.29 728.17 519.35 728.17 508.33 720.13 530.26 720.13"/>
        <polygon class="cls-1" points="572.29 720.13 583.31 728.17 559.84 728.17 548.82 720.13 572.29 720.13"/>
        <polygon class="cls-1" points="609.1 720.13 620.13 728.17 599.91 728.17 588.89 720.13 609.1 720.13"/>
        <polygon class="cls-1" points="653 720.13 664.02 728.17 641.03 728.17 630.01 720.13 653 720.13"/>
        <polygon class="cls-1" points="702.51 720.13 713.53 728.17 684.93 728.17 673.91 720.13 702.51 720.13"/>
        <polygon class="cls-1" points="750.34 720.13 761.37 728.17 734.43 728.17 723.41 720.13 750.34 720.13"/>
        <polygon class="cls-1" points="802.97 720.13 813.99 728.17 782.27 728.17 771.25 720.13 802.97 720.13"/>
        <polygon class="cls-1" points="860.77 728.17 834.89 728.17 823.87 720.13 849.75 720.13 860.77 728.17"/>
      </g>
      <polygon class="cls-1" points="663.09 729.15 482.02 729.15 478.9 727.48 468.06 719.16 649.87 719.16 663.09 729.15"/>
      <polygon class="cls-1" points="771.06 771.54 539.62 771.54 488.96 734.59 720.4 734.59 771.06 771.54"/>
    </g>
  </g>
  <g>
    <g>
      <polygon class="cls-6" points="690.46 463.29 590.45 546.97 690.46 463.29 590.45 379.61 690.46 463.29"/>
      <path class="cls-6" d="M590.46,558.01c-3.16,0-6.29-1.35-8.48-3.96-1.73-2.07-2.58-4.59-2.57-7.09,0-3.15,1.35-6.29,3.96-8.47l89.88-75.21-89.88-75.21c-2.61-2.18-3.95-5.31-3.96-8.47,0-2.5.84-5.02,2.57-7.09,3.92-4.68,10.88-5.3,15.56-1.38l100.01,83.68c2.51,2.1,3.96,5.2,3.96,8.47s-1.45,6.37-3.96,8.47l-100.01,83.68c-2.07,1.73-4.58,2.57-7.08,2.57Z"/>
    </g>
    <g>
      <polygon class="cls-6" points="316.79 463.29 416.79 546.97 316.79 463.29 416.79 379.61 316.79 463.29"/>
      <path class="cls-6" d="M416.79,558.01c-2.5,0-5.02-.84-7.08-2.57l-100.01-83.68c-2.51-2.1-3.96-5.2-3.96-8.47s1.45-6.37,3.96-8.47l100.01-83.68c4.68-3.91,11.64-3.29,15.56,1.38,1.73,2.07,2.58,4.59,2.57,7.09,0,3.15-1.35,6.29-3.96,8.47l-89.88,75.21,89.88,75.21c2.61,2.18,3.95,5.31,3.96,8.47,0,2.5-.84,5.02-2.57,7.09-2.18,2.61-5.32,3.96-8.48,3.96Z"/>
    </g>
    <path class="cls-6" d="M457.53,558.02c-1.76,0-3.54-.42-5.2-1.31-5.38-2.88-7.4-9.57-4.52-14.95l89.62-167.36c2.88-5.37,9.58-7.41,14.95-4.52,5.38,2.88,7.4,9.57,4.52,14.95l-89.62,167.36c-1.99,3.72-5.8,5.83-9.74,5.83Z"/>
  </g>
</svg>